<?xml version="1.0" encoding="UTF-8"?>
<svg version="1.1" xmlns="http://www.w3.org/2000/svg" width="400" height="120">
<path d="M0 0 C132 0 264 0 400 0 C400 39.6 400 79.2 400 120 C268 120 136 120 0 120 C0 80.4 0 40.8 0 0 Z " fill="none" transform="translate(0,0)"/>
<path d="M0 0 C0.66 0.66 1.32 1.32 2 2 C2.66 0.68 3.32 -0.64 4 -2 C9.28 -2 14.56 -2 20 -2 C20 17.47 20 36.94 20 57 C14.39 57 8.78 57 3 57 C2.67 55.35 2.34 53.7 2 52 C1.29875 52.598125 0.5975 53.19625 -0.125 53.8125 C-5.56344354 57.95044617 -10.05651112 59.5383175 -16.875 59.4375 C-17.58317871 59.43065186 -18.29135742 59.42380371 -19.02099609 59.41674805 C-24.60032037 59.24516551 -28.54542859 58.32186865 -33 55 C-34.051875 54.2575 -35.10375 53.515 -36.1875 52.75 C-42.624599 46.45594764 -46.20403765 39.31585148 -46.43164062 30.31176758 C-46.45791182 19.10600965 -44.97469988 12.10672046 -37.25 3.625 C-26.46724701 -6.29432956 -12.88091114 -6.42872432 0 0 Z " fill="#8B8989" transform="translate(168,44)"/>
<path d="M0 0 C2.44511094 1.43517381 4.70496276 2.86466872 6.875 4.6875 C7.205 3.3675 7.535 2.0475 7.875 0.6875 C13.485 0.6875 19.095 0.6875 24.875 0.6875 C24.875 20.1575 24.875 39.6275 24.875 59.6875 C19.265 59.6875 13.655 59.6875 7.875 59.6875 C7.875 58.0375 7.875 56.3875 7.875 54.6875 C7.24851562 55.10902344 6.62203125 55.53054687 5.9765625 55.96484375 C5.15929687 56.51269531 4.34203125 57.06054688 3.5 57.625 C2.68789063 58.17027344 1.87578125 58.71554688 1.0390625 59.27734375 C-4.98231584 63.2010217 -13.12761129 62.30390383 -20.125 61.6875 C-27.25327541 59.94736218 -32.67249928 54.38209411 -36.63671875 48.41015625 C-41.72760165 39.64333499 -42.73661062 29.78441181 -40.4765625 19.83203125 C-37.21559759 10.84347413 -31.56244376 4.94107677 -23.140625 0.59765625 C-16.42474273 -2.43490299 -6.88116354 -2.86965554 0 0 Z " fill="#8A8989" transform="translate(362.125,41.3125)"/>
<path d="M0 0 C5.49418954 4.29454081 9.2275384 8.47817457 11 15.375 C11.2594405 18.70895418 11.23324221 22.02489517 11.1953125 25.3671875 C11.1924826 26.31312775 11.18965271 27.25906799 11.18673706 28.2336731 C11.17558932 31.23924694 11.15049465 34.24451702 11.125 37.25 C11.11496321 39.29426651 11.10583859 41.33853772 11.09765625 43.3828125 C11.07566767 48.38032444 11.04117509 53.3776108 11 58.375 C5.39 58.375 -0.22 58.375 -6 58.375 C-6.03738281 55.91804688 -6.07476562 53.46109375 -6.11328125 50.9296875 C-6.15956036 48.53669594 -6.21077062 46.14385685 -6.26245117 43.75097656 C-6.29560018 42.09449616 -6.32366309 40.43790554 -6.34643555 38.78125 C-6.38016732 36.39275366 -6.43248959 34.00525829 -6.48828125 31.6171875 C-6.49786613 30.51526566 -6.49786613 30.51526566 -6.50764465 29.39108276 C-6.64087012 24.67786323 -7.48253206 21.36951739 -10 17.375 C-14.30857429 14.43733571 -17.83767005 13.63752429 -23 14.375 C-27.30283027 17.21649169 -29.5101776 19.47859736 -31 24.375 C-31.23096904 27.04706065 -31.37103943 29.6269183 -31.4140625 32.30078125 C-31.43342865 33.04837204 -31.4527948 33.79596283 -31.4727478 34.56620789 C-31.53223918 36.93985806 -31.57880592 39.31355754 -31.625 41.6875 C-31.66320789 43.30275482 -31.70226125 44.91798987 -31.7421875 46.53320312 C-31.83949805 50.48036238 -31.91930522 54.42732655 -32 58.375 C-37.94 58.375 -43.88 58.375 -50 58.375 C-50 38.905 -50 19.435 -50 -0.625 C-44.39 -0.625 -38.78 -0.625 -33 -0.625 C-32.34 1.355 -31.68 3.335 -31 5.375 C-30.34 4.611875 -29.68 3.84875 -29 3.0625 C-21.65001564 -4.12415137 -8.65524523 -5.50525615 0 0 Z " fill="#8B8989" transform="translate(300,42.625)"/>
<path d="M0 0 C4.39121394 0.26922048 8.61302652 0.81628497 12.88549805 1.87207031 C8.93072259 9.45853452 4.22844305 16.45430746 -0.61450195 23.49707031 C-1.3687487 24.60100442 -2.12265677 25.70516999 -2.8762207 26.80957031 C-3.60454102 27.87433594 -4.33286133 28.93910156 -5.08325195 30.03613281 C-5.77547852 31.05223633 -6.46770508 32.06833984 -7.1809082 33.11523438 C-8.80508543 35.43091735 -10.50770723 37.624424 -12.27075195 39.83300781 C-14.39556738 42.63136016 -14.39556738 42.63136016 -13.82543945 45.29394531 C-11.32163295 49.06680443 -8.57795275 52.59617629 -5.73950195 56.12207031 C-0.74721722 62.43113038 4.10925502 68.80677632 8.76049805 75.37207031 C9.27789551 76.09555664 9.79529297 76.81904297 10.32836914 77.56445312 C13.88549805 82.62516103 13.88549805 82.62516103 13.88549805 84.87207031 C-5.16990489 87.39083227 -5.16990489 87.39083227 -11.22045898 83.52734375 C-14.87988151 79.90177627 -17.3841466 75.55051289 -19.86010742 71.06591797 C-21.80735222 67.66032401 -24.15376095 64.57957534 -26.48950195 61.43457031 C-27.29915278 60.29393116 -28.1052883 59.15078662 -28.9074707 58.00488281 C-30.28604975 56.04803256 -31.68180237 54.10303832 -33.1027832 52.17675781 C-33.66352539 51.39558594 -34.22426758 50.61441406 -34.80200195 49.80957031 C-35.28024414 49.15859375 -35.75848633 48.50761719 -36.2512207 47.83691406 C-37.45939514 45.08708717 -36.96699117 43.74077646 -36.11450195 40.87207031 C-34.3359375 38.25976562 -34.3359375 38.25976562 -32.0637207 35.45019531 C-28.6300282 31.08751483 -25.73962434 26.65953885 -23.0715332 21.79394531 C-11.05033626 0.45553835 -11.05033626 0.45553835 0 0 Z " fill="#8A8888" transform="translate(70.114501953125,16.1279296875)"/>
<path d="M0 0 C6.27 0 12.54 0 19 0 C19 27.06 19 54.12 19 82 C12.73 82 6.46 82 0 82 C0 54.94 0 27.88 0 0 Z " fill="#8A8A8A" transform="translate(11,19)"/>
<path d="M0 0 C5.94 0 11.88 0 18 0 C18 28.05 18 56.1 18 85 C12.06 85 6.12 85 0 85 C0 56.95 0 28.9 0 0 Z " fill="#8A8989" transform="translate(93,16)"/>
<path d="M0 0 C0 6.6 0 13.2 0 20 C-2.5678125 20.1546875 -2.5678125 20.1546875 -5.1875 20.3125 C-11.12228547 20.82692566 -11.12228547 20.82692566 -16 24 C-20.81153085 31.35721884 -20.65718525 38.38510336 -20.75 47 C-20.77820637 48.3607143 -20.80814021 49.72139394 -20.83984375 51.08203125 C-20.91017721 54.3877037 -20.95739502 57.69385391 -21 61 C-26.94 61 -32.88 61 -39 61 C-39 41.53 -39 22.06 -39 2 C-33.39 2 -27.78 2 -22 2 C-21.34 4.97 -20.68 7.94 -20 11 C-19.505 10.113125 -19.01 9.22625 -18.5 8.3125 C-13.61451627 1.07028645 -8.58396213 0 0 0 Z " fill="#8B8989" transform="translate(241,40)"/>
<path d="M0 0 C4.9710149 2.53240382 8.49430567 5.98861134 11 11 C11.87947453 17.05581034 10.88695128 21.17441802 7.58203125 26.2734375 C4.81856675 29.28936666 2.16459607 30.79532303 -1.8671875 31.50390625 C-10.9877321 31.6815792 -10.9877321 31.6815792 -15.125 28.1875 C-18.89618909 24.38816771 -20.30724686 21.57387442 -20.375 16.1875 C-20.26769733 10.95491675 -19.77633063 7.87315962 -16 4 C-10.83631376 0.15254751 -6.42086656 -1.15997407 0 0 Z " fill="#731E1E" transform="translate(359,56)"/>
<path d="M0 0 C4.76506238 2.15052441 7.6885682 4.39535161 9.8359375 9.31640625 C10.57883733 14.43931968 10.62535759 19.49219694 8.3984375 24.25390625 C5.05066607 28.25490138 1.87888725 30.05359181 -3.1640625 31.31640625 C-8.73732829 31.72099905 -12.96794752 29.94032373 -17.1640625 26.31640625 C-19.86405324 22.93722529 -21.06310371 20.12407654 -21.6015625 15.81640625 C-20.90644626 10.25547637 -19.40709081 6.10478975 -15.1015625 2.44140625 C-10.22434537 -1.08679338 -5.78263217 -1.82664374 0 0 Z " fill="#731E1E" transform="translate(160.1640625,56.68359375)"/>
</svg>
