<?xml version="1.0" encoding="UTF-8"?>
<svg version="1.1" xmlns="http://www.w3.org/2000/svg" width="400" height="120">
<path d="M0 0 C132 0 264 0 400 0 C400 39.6 400 79.2 400 120 C268 120 136 120 0 120 C0 80.4 0 40.8 0 0 Z " fill="none" transform="translate(0,0)"/>
<path d="M0 0 C3.28226787 2.53911288 5.64061382 4.998219 6.390625 9.17578125 C6.19264475 14.90730944 3.70484714 18.27136804 -0.11328125 22.37109375 C-4.41946168 26.08885201 -7.97686002 26.35965908 -13.515625 26.26953125 C-16.80076298 25.91312477 -19.22458975 24.75289068 -22 23 C-22 22.34 -22 21.68 -22 21 C-21.39671875 20.82984375 -20.7934375 20.6596875 -20.171875 20.484375 C-13.68359127 18.61826983 -13.68359127 18.61826983 -9 14 C-7.72453306 9.43521636 -7.72453306 9.43521636 -9 5.0625 C-12.12809441 3.40069984 -14.51095802 3.64518217 -18 4 C-23.16938786 5.9882261 -25.14911423 8.09824129 -27.75 12.9375 C-28.07943604 13.54231201 -28.40887207 14.14712402 -28.74829102 14.77026367 C-32.04190386 20.89221212 -35.12420503 27.13137752 -38.19580078 33.36694336 C-40.27682155 37.5890066 -42.39512387 41.77855125 -44.63671875 45.91796875 C-45.0551001 46.69100342 -45.47348145 47.46403809 -45.90454102 48.26049805 C-46.69867059 49.71769961 -47.49960143 51.17122208 -48.30834961 52.62036133 C-50.20390703 56.10179524 -51 57.94459458 -51 62 C-48.21855524 64.22721349 -48.21855524 64.22721349 -45.25 64.125 C-38.86925758 61.91628147 -35.52002 55.903284 -32.0625 50.375 C-28.75189912 45.29933075 -24.80467778 41.18148959 -18.88671875 39.34375 C-14.75158618 38.65845496 -11.68658216 39.04150323 -8 41 C-7.67 40.67 -7.34 40.34 -7 40 C-3.7 40 -0.4 40 3 40 C0.03 46.6 -2.94 53.2 -6 60 C2.49067876 53.93522946 8.32176984 49.49067184 13 40 C14 39 14 39 16.28515625 38.90234375 C17.20167969 38.91394531 18.11820312 38.92554688 19.0625 38.9375 C19.98160156 38.94652344 20.90070313 38.95554688 21.84765625 38.96484375 C22.55792969 38.97644531 23.26820312 38.98804688 24 39 C23.67 40.32 23.34 41.64 23 43 C24.051875 42.34 25.10375 41.68 26.1875 41 C29.2759216 39.26276285 31.4114874 38.12711856 35 39 C37.3125 41.5 37.3125 41.5 39 44 C39.50789062 43.6390625 40.01578125 43.278125 40.5390625 42.90625 C44.76430554 40.05777155 47.71424419 38.1190407 53 39 C55 41 55 41 55.34375 43.6328125 C54.90664401 47.9144644 53.4129811 51.06380986 51.5 54.875 C51.16613281 55.56335938 50.83226562 56.25171875 50.48828125 56.9609375 C49.66928273 58.64573446 48.83606409 60.32360619 48 62 C60.45605149 57.05800904 64.21705116 48.80071113 69.625 37.25 C70.41736777 35.61953223 71.21292043 33.99060822 72.01171875 32.36328125 C73.4650208 29.39878792 74.89634012 26.42546026 76.31103516 23.44238281 C78 20 78 20 80 17 C82.6015625 16.70703125 82.6015625 16.70703125 85.625 16.8125 C86.62789062 16.83957031 87.63078125 16.86664063 88.6640625 16.89453125 C89.43492187 16.92933594 90.20578125 16.96414062 91 17 C89.4719611 22.09882455 87.28963144 26.65665659 84.875 31.375 C84.50246094 32.11105469 84.12992188 32.84710938 83.74609375 33.60546875 C82.8343878 35.40550358 81.91770068 37.20301402 81 39 C82.11503906 38.97679687 83.23007813 38.95359375 84.37890625 38.9296875 C88 39 88 39 89.9375 40.125 C91.44484863 42.785027 91.19986253 45.00206205 91 48 C91.99 48 92.98 48 94 48 C94.20625 47.4225 94.4125 46.845 94.625 46.25 C97.01964374 42.33149206 100.72751322 40.42416226 105 39 C109.22225144 38.60905079 111.31846336 38.56497661 114.9375 40.875 C117 43 117 43 117 45 C117.92941406 44.18144531 118.85882813 43.36289062 119.81640625 42.51953125 C124.63969798 39.07432287 129.20591373 39.43284989 134.9375 39.6875 C135.90751953 39.71005859 136.87753906 39.73261719 137.87695312 39.75585938 C140.25293654 39.81438113 142.62563198 39.89629491 145 40 C143.57529196 46.47246393 143.57529196 46.47246393 140.9765625 48.85546875 C140.20054687 49.29503906 139.42453125 49.73460937 138.625 50.1875 C137.82320312 50.67605469 137.02140625 51.16460937 136.1953125 51.66796875 C135.47085938 52.10753906 134.74640625 52.54710937 134 53 C130.90248834 55.47800933 130.14865068 56.35584705 129.25 60.25 C129.1675 61.1575 129.085 62.065 129 63 C135.00934654 61.77360275 138.91243965 59.62564566 143 55 C144.63046797 52.47257532 146.11530298 49.8921761 147.59375 47.2734375 C149.33283818 44.46191162 151.2124275 42.76057211 154 41 C154.598125 40.5875 155.19625 40.175 155.8125 39.75 C159.67714837 38.4249777 163.97565253 38.46511144 167.921875 39.5078125 C170.41904491 40.09924748 172.68682233 40.09622602 175.25 40.0625 C176.14203125 40.05347656 177.0340625 40.04445312 177.953125 40.03515625 C178.96632813 40.01775391 178.96632813 40.01775391 180 40 C179.39301257 44.12751449 177.96189209 47.3321148 176 51 C176.62648438 50.4946875 177.25296875 49.989375 177.8984375 49.46875 C179.12433594 48.49421875 179.12433594 48.49421875 180.375 47.5 C181.18710937 46.8503125 181.99921875 46.200625 182.8359375 45.53125 C185 44 185 44 187 44 C187.21398437 43.23429687 187.42796875 42.46859375 187.6484375 41.6796875 C189.52158642 36.57995836 192.06954877 31.91160663 194.625 27.125 C195.140625 26.15046875 195.65625 25.1759375 196.1875 24.171875 C197.45426703 21.77909283 198.72658475 19.38925069 200 17 C203.3 17 206.6 17 210 17 C210.33 17.66 210.66 18.32 211 19 C210.10375977 21.15478516 210.10375977 21.15478516 208.69140625 23.7890625 C208.19189453 24.73007812 207.69238281 25.67109375 207.17773438 26.640625 C206.37819336 28.11789063 206.37819336 28.11789063 205.5625 29.625 C205.03333984 30.61757813 204.50417969 31.61015625 203.95898438 32.6328125 C202.6463946 35.09244018 201.32648654 37.54784707 200 40 C200.61488281 39.89300781 201.22976563 39.78601562 201.86328125 39.67578125 C203.07564453 39.49595703 203.07564453 39.49595703 204.3125 39.3125 C205.11300781 39.18488281 205.91351563 39.05726562 206.73828125 38.92578125 C209 39 209 39 210.79858398 40.27905273 C212 42 212 42 211.91015625 45.22265625 C210.91215747 49.36456537 209.43263199 52.70403518 207.4375 56.4375 C206.9434668 57.39172852 206.9434668 57.39172852 206.43945312 58.36523438 C205.63546752 59.91494576 204.81902334 61.45818322 204 63 C204.62648438 62.6390625 205.25296875 62.278125 205.8984375 61.90625 C206.71570313 61.4421875 207.53296875 60.978125 208.375 60.5 C209.18710937 60.0359375 209.99921875 59.571875 210.8359375 59.09375 C213 58 213 58 215 58 C215.268125 57.14148438 215.53625 56.28296875 215.8125 55.3984375 C217.77571641 49.78002211 220.05390922 44.51186423 224 40 C227.53223878 38.98197485 230.43402691 39.22510042 234 40 C233.42770367 45.19228855 230.9017839 49.3103703 228.4375 53.8125 C227.80038086 54.99489258 227.80038086 54.99489258 227.15039062 56.20117188 C226.10603446 58.1373378 225.0557923 60.07005367 224 62 C234.20000672 56.99210826 240.24184275 51.33355524 245 41 C246 40 246 40 248.28515625 39.90234375 C249.65994141 39.91974609 249.65994141 39.91974609 251.0625 39.9375 C251.98160156 39.94652344 252.90070313 39.95554688 253.84765625 39.96484375 C254.55792969 39.97644531 255.26820313 39.98804688 256 40 C256 40.99 256 41.98 256 43 C256.845625 42.505 257.69125 42.01 258.5625 41.5 C262.35634296 39.84450489 264.90565158 39.67887463 269 40 C269.33 40.33 269.66 40.66 270 41 C269.61383651 46.56777538 268.01312994 50.61775684 265.4375 55.4375 C264.9434668 56.39172852 264.9434668 56.39172852 264.43945312 57.36523438 C263.63546752 58.91494576 262.81902334 60.45818322 262 62 C262.33 62.33 262.66 62.66 263 63 C270.39631953 60.11882964 272.97397347 56.82214909 276.4375 49.8125 C277.28971669 48.17284018 278.14254791 46.53349956 278.99609375 44.89453125 C279.35888428 44.17112549 279.7216748 43.44771973 280.09545898 42.70239258 C281 41 281 41 282 40 C283.68608966 39.92794489 285.37500659 39.91613932 287.0625 39.9375 C287.98160156 39.94652344 288.90070313 39.95554688 289.84765625 39.96484375 C290.55792969 39.97644531 291.26820313 39.98804688 292 40 C291.41584531 43.61393308 290.44519602 46.42476184 288.71484375 49.64453125 C288.04291992 50.90620117 288.04291992 50.90620117 287.35742188 52.19335938 C286.88884766 53.05767578 286.42027344 53.92199219 285.9375 54.8125 C285.46505859 55.69615234 284.99261719 56.57980469 284.50585938 57.49023438 C283.34296716 59.66331578 282.17421625 61.83302284 281 64 C281.68707031 63.48308594 282.37414062 62.96617188 283.08203125 62.43359375 C283.98308594 61.77488281 284.88414062 61.11617188 285.8125 60.4375 C287.15248047 59.44556641 287.15248047 59.44556641 288.51953125 58.43359375 C289.74736328 57.72396484 289.74736328 57.72396484 291 57 C291.99 57.33 292.98 57.66 294 58 C291.44435139 64.46011176 284.34222801 67.61201303 278.625 71 C276 72 276 72 273.75 71.875 C272 71 272 71 270 68 C270 67.01 270 66.02 270 65 C269.21496094 65.433125 268.42992187 65.86625 267.62109375 66.3125 C257.18629174 71.84358524 257.18629174 71.84358524 251 71 C249.55430975 68.10861949 249.70012037 66.23120301 250 63 C251.0997775 60.23773502 252.52230041 57.70098982 254 55.125 C254.3815625 54.43664062 254.763125 53.74828125 255.15625 53.0390625 C256.09291108 51.35307255 257.04493248 49.67563186 258 48 C251.28226194 51.02712888 248.88883517 54.71575207 245.625 61.1875 C244.76384289 62.8272549 243.9019059 64.46660055 243.0390625 66.10546875 C242.48532959 67.19057739 242.48532959 67.19057739 241.92041016 68.29760742 C241 70 241 70 240 71 C238.48071962 71.07179964 236.95832518 71.08392007 235.4375 71.0625 C234.19806641 71.04896484 234.19806641 71.04896484 232.93359375 71.03515625 C231.97646484 71.01775391 231.97646484 71.01775391 231 71 C231 67.79604584 231.74335022 65.90600261 233 63 C232.32453125 63.48210937 231.6490625 63.96421875 230.953125 64.4609375 C230.06109375 65.09257813 229.1690625 65.72421875 228.25 66.375 C227.36828125 67.00148438 226.4865625 67.62796875 225.578125 68.2734375 C219.88737974 72.08451236 219.88737974 72.08451236 216.375 71.75 C214 71 214 71 212 69 C212 67.68 212 66.36 212 65 C211.28714844 65.433125 210.57429688 65.86625 209.83984375 66.3125 C200.16439995 71.93806086 200.16439995 71.93806086 194 71 C193 70 193 70 192.71875 67.4296875 C193.07517576 63.08327332 194.56425465 59.98154287 196.5 56.125 C196.83386719 55.43664062 197.16773438 54.74828125 197.51171875 54.0390625 C198.33071727 52.35426554 199.16393591 50.67639381 200 49 C199.67 48.67 199.34 48.34 199 48 C192.81227286 51.22995728 190.62978131 55.60426905 187.625 61.75 C186.95017578 63.08224609 186.95017578 63.08224609 186.26171875 64.44140625 C185.16042651 66.62055898 184.07827011 68.80936429 183 71 C180.03 71 177.06 71 174 71 C174.57614466 67.25837091 175.62901096 64.55701579 177.5625 61.3125 C179.46315966 58.34778023 179.46315966 58.34778023 180 55 C171.55511013 59.81756869 167.72835758 64.86816822 163.75 73.625 C157.92782295 86.11907724 157.92782295 86.11907724 152 90 C148.24994959 91.2500168 146.60216444 91.2167792 142.875 89.875 C139.82497396 87.88585258 138.01336562 86.02004843 136 83 C136 82.34 136 81.68 136 81 C140.875 81.875 140.875 81.875 142 83 C144.32515499 83.75342517 144.32515499 83.75342517 147 83 C150.21308166 79.22851953 152.39635459 74.6651503 154 70 C152.9275 70.0825 151.855 70.165 150.75 70.25 C147 70 147 70 144.6875 68.1875 C143.39166524 66.5077142 142.1768103 64.76521545 141 63 C139.95199219 63.74056641 139.95199219 63.74056641 138.8828125 64.49609375 C137.97273437 65.13675781 137.06265625 65.77742188 136.125 66.4375 C135.22007812 67.07558594 134.31515625 67.71367188 133.3828125 68.37109375 C129.67288482 70.90722464 127.53207448 71.45320745 123 71 C120.625 69.4375 120.625 69.4375 119 67 C118.3788208 62.80704042 118.63504664 60.66232277 120.6875 56.9375 C123.073518 53.90661227 125.48969753 50.92868622 128 48 C123.76493759 47.69010041 123.76493759 47.69010041 119.91015625 49.21875 C117.67931815 51.29904074 117.10715021 52.80170107 116.1875 55.6875 C113.98504634 61.63325434 110.54499861 66.85194143 105.02734375 70.1953125 C101.70844035 71.51264217 98.47581443 71.52517276 95 71 C92.125 69.625 92.125 69.625 90 67 C89.0122354 63.70055593 88.43638519 60.41292296 88 57 C87.43732422 57.79664062 87.43732422 57.79664062 86.86328125 58.609375 C82.99012274 63.95569959 79.22100367 68.38762124 73 71 C68.09085041 71.62086304 63.53531764 72.06010028 59.375 69.1875 C58 67 58 67 57 64 C55.82244141 64.75796875 55.82244141 64.75796875 54.62109375 65.53125 C43.90845047 72.15600118 43.90845047 72.15600118 38 71 C36 69 36 69 35.6875 66.3046875 C36.05897036 62.37638842 37.2681394 59.66088206 39 56.125 C39.556875 54.97257812 40.11375 53.82015625 40.6875 52.6328125 C41.120625 51.76398438 41.55375 50.89515625 42 50 C36.28143164 51.77569238 34.05154635 53.64170745 31.234375 58.90234375 C30.86828125 59.63582031 30.5021875 60.36929688 30.125 61.125 C29.35749134 62.58631615 28.58929845 64.0472732 27.8203125 65.5078125 C27.21960938 66.66023438 26.61890625 67.81265625 26 69 C25 70 25 70 22.71484375 70.09765625 C21.79832031 70.08605469 20.88179688 70.07445313 19.9375 70.0625 C18.55884766 70.04896484 18.55884766 70.04896484 17.15234375 70.03515625 C16.08693359 70.01775391 16.08693359 70.01775391 15 70 C16.48008696 64.99886406 18.6318336 60.67084403 21.125 56.125 C21.49753906 55.43664062 21.87007813 54.74828125 22.25390625 54.0390625 C23.16499526 52.35705202 24.08190315 50.67819564 25 49 C18.68460804 51.9415212 16.22649884 55.04456657 13.125 61.1875 C12.35758108 62.63975137 11.58939288 64.09159657 10.8203125 65.54296875 C10.21960938 66.68378906 9.61890625 67.82460937 9 69 C8 70 8 70 5.71484375 70.09765625 C4.79832031 70.08605469 3.88179688 70.07445313 2.9375 70.0625 C1.55884766 70.04896484 1.55884766 70.04896484 0.15234375 70.03515625 C-0.91306641 70.01775391 -0.91306641 70.01775391 -2 70 C-1 67 0 64 1 61 C-0.32064453 62.0828125 -0.32064453 62.0828125 -1.66796875 63.1875 C-2.84063788 64.1256353 -4.01384336 65.06310042 -5.1875 66 C-5.76564453 66.47695312 -6.34378906 66.95390625 -6.93945312 67.4453125 C-9.55018895 69.51030129 -11.48779977 70.92032441 -14.8125 71.4375 C-17 71 -17 71 -18.8125 69 C-19.204375 68.34 -19.59625 67.68 -20 67 C-21.010625 67.680625 -22.02125 68.36125 -23.0625 69.0625 C-26.95377757 71.3257941 -29.60993163 71.07511878 -34 70 C-34.66 68.35 -35.32 66.7 -36 65 C-36.58007812 65.433125 -37.16015625 65.86625 -37.7578125 66.3125 C-44.08039068 70.81968445 -44.08039068 70.81968445 -48.1875 71.625 C-51 71 -51 71 -54 68.9375 C-56.78105745 66.75699382 -56.78105745 66.75699382 -59.6875 67 C-62.86694256 67.89526653 -62.86694256 67.89526653 -65.296875 68.97265625 C-73.13948908 72.20947478 -80.58438973 73.07867522 -89 72 C-92.05129816 70.44484942 -95.02586721 68.85152514 -97 66 C-97 62.39044826 -96.08512869 61.09663256 -93.6875 58.375 C-87.39910076 52.81780997 -82.50648869 50.71270299 -73.9375 50.75 C-72.75027344 50.74484375 -71.56304687 50.7396875 -70.33984375 50.734375 C-67.12511887 50.99004903 -64.8912914 51.62267404 -62 53 C-61.73735352 52.14567383 -61.47470703 51.29134766 -61.20410156 50.41113281 C-59.96300112 46.89518483 -58.44803914 43.7320378 -56.734375 40.421875 C-56.26055389 39.50465668 -56.26055389 39.50465668 -55.77716064 38.56890869 C-55.11021593 37.28036312 -54.44113208 35.99292273 -53.77001953 34.70654297 C-52.76152842 32.77211316 -51.76111773 30.83367096 -50.76171875 28.89453125 C-37.6563246 3.57075117 -37.6563246 3.57075117 -24.0625 -1.4375 C-15.91346348 -3.83975727 -7.5418503 -4.5186779 0 0 Z " fill="#251F20" transform="translate(97,17)"/>
<path d="M0 0 C0.8971875 0.309375 0.8971875 0.309375 1.8125 0.625 C1.53367544 7.17737724 -1.03030943 11.6013224 -5.1875 16.625 C-7.24609375 18.41015625 -7.24609375 18.41015625 -9.1875 19.625 C-11.4375 19.3125 -11.4375 19.3125 -13.1875 18.625 C-11.69727463 13.11116612 -7.28703766 -1.24920646 0 0 Z " fill="#6F1B1B" transform="translate(84.1875,60.375)"/>
<path d="M0 0 C3.5625 0.3125 3.5625 0.3125 5.5 1.375 C7.19585287 4.46743758 6.99310657 6.86764741 6.5625 10.3125 C4.9375 12.3125 4.9375 12.3125 2.5625 13.3125 C-0.9178645 13.24147215 -2.73235909 12.92665498 -5.375 10.625 C-6.82300221 7.47346578 -6.367426 5.60300737 -5.4375 2.3125 C-3.4375 0.3125 -3.4375 0.3125 0 0 Z " fill="#261F20" transform="translate(390.4375,35.6875)"/>
<path d="M0 0 C1.9375 1.125 1.9375 1.125 3 3 C3.54400387 6.65259739 3.43774093 8.3433886 1.375 11.4375 C-1 13 -1 13 -4.0625 12.9375 C-8.41903019 11.54711802 -8.41903019 11.54711802 -10 9 C-10.38976435 5.88188517 -10.50422245 3.88980433 -8.9375 1.125 C-5.8930714 -0.64273274 -3.4368988 -0.36823916 0 0 Z " fill="#261F20" transform="translate(336,36)"/>
<path d="M0 0 C-0.54170013 4.52085539 -1.70210989 7.79297692 -3.9375 11.75 C-4.46214844 12.69359375 -4.98679687 13.6371875 -5.52734375 14.609375 C-7 17 -7 17 -9 19 C-11.625 19.125 -11.625 19.125 -14 19 C-13.3726954 14.49715604 -11.60379851 10.75776327 -9.5625 6.75 C-9.24990234 6.11320312 -8.93730469 5.47640625 -8.61523438 4.8203125 C-6.20497672 0.03037128 -5.28804758 -1.58641427 0 0 Z " fill="#701B1B" transform="translate(262,62)"/>
<path d="M0 0 C0.99 0 1.98 0 3 0 C2.48912435 5.28352979 1.237398 9.19220289 -1.25 13.875 C-1.83265625 15.00679687 -2.4153125 16.13859375 -3.015625 17.3046875 C-5 20 -5 20 -7.734375 20.8828125 C-8.85585937 20.94082031 -8.85585937 20.94082031 -10 21 C-9.48080319 15.718795 -7.67578487 12.13622624 -5 7.6875 C-4.44699219 6.73907227 -4.44699219 6.73907227 -3.8828125 5.77148438 C-1.1945211 1.1945211 -1.1945211 1.1945211 0 0 Z " fill="#6E1B1B" transform="translate(204,61)"/>
<path d="M0 0 C-0.54356018 4.91437975 -2.04862544 8.43909955 -4.4375 12.75 C-5.05496094 13.87921875 -5.67242187 15.0084375 -6.30859375 16.171875 C-8 19 -8 19 -10 21 C-10.99 21 -11.98 21 -13 21 C-12.44489088 16.04964336 -10.82408829 12.06788791 -8.5625 7.6875 C-8.24990234 7.05521484 -7.93730469 6.42292969 -7.61523438 5.77148438 C-4.68928356 0 -4.68928356 0 0 0 Z " fill="#6D1B1B" transform="translate(178,61)"/>
<path d="M0 0 C1.44246094 0.00966797 1.44246094 0.00966797 2.9140625 0.01953125 C5.375 0.1875 5.375 0.1875 7.375 1.1875 C6.375 4.1875 6.375 4.1875 4.5546875 5.13671875 C-6.58780992 8.70609504 -6.58780992 8.70609504 -11.625 6.1875 C-10.68605483 3.84013709 -10.04713961 2.46160423 -7.8984375 1.06640625 C-5.13577558 -0.00163315 -2.95538291 -0.04381295 0 0 Z " fill="#6E1B1B" transform="translate(19.625,73.8125)"/>
</svg>
