<svg width="1280" height="832" viewBox="0 0 1280 832" xmlns="http://www.w3.org/2000/svg">
<defs>
  <mask id="crosshairMask">
    <rect width="1280" height="832" fill="white"/>
    <path d="M640 462.8C631.384 462.8 624.4 469.785 624.4 478.4V556.4C624.401 565.016 631.384 572 640 572C648.616 572 655.599 565.016 655.6 556.4V478.4C655.6 469.785 648.616 462.8 640 462.8ZM624.4 384.8C615.785 384.8 608.8 391.785 608.8 400.4V431.6C608.8 440.215 615.785 447.2 624.4 447.2H655.6C664.215 447.2 671.2 440.215 671.2 431.6V400.4C671.2 391.785 664.215 384.8 655.6 384.8H624.4ZM499.6 400.4C490.984 400.401 484 407.384 484 416C484 424.616 490.984 431.599 499.6 431.6H577.6C586.215 431.6 593.2 424.616 593.2 416C593.2 407.384 586.215 400.4 577.6 400.4H499.6ZM702.4 400.4C693.785 400.4 686.8 407.384 686.8 416C686.8 424.616 693.785 431.6 702.4 431.6H780.4C789.016 431.599 796 424.616 796 416C796 407.384 789.016 400.401 780.4 400.4H702.4ZM640 260C631.384 260 624.401 266.984 624.4 275.6V353.6C624.4 362.215 631.384 369.2 640 369.2C648.616 369.2 655.6 362.215 655.6 353.6V275.6C655.599 266.984 648.616 260 640 260Z" fill="black"/>
  </mask>
</defs>
<rect width="1280" height="832" fill="#D1E4B6" mask="url(#crosshairMask)"/>
</svg>
