<?xml version="1.0" encoding="UTF-8"?>
<svg version="1.1" xmlns="http://www.w3.org/2000/svg" width="400" height="120">
<path d="M0 0 C132 0 264 0 400 0 C400 39.6 400 79.2 400 120 C268 120 136 120 0 120 C0 80.4 0 40.8 0 0 Z " fill="none" transform="translate(0,0)"/>
<path d="M0 0 C0.99 0.33 1.98 0.66 3 1 C3 2.98 3 4.96 3 7 C5.31 7.66 7.62 8.32 10 9 C9.505 5.04 9.505 5.04 9 1 C10.9375 1.5625 10.9375 1.5625 13 3 C13.94284862 6.91644812 14.38087404 10.16423878 13 14 C12.34 14 11.68 14 11 14 C10.71125 14.5775 10.4225 15.155 10.125 15.75 C9.08333333 17.83333333 8.04166667 19.91666667 7 22 C7.99 23.32 8.98 24.64 10 26 C12.31 25.34 14.62 24.68 17 24 C16.505 26.475 16.505 26.475 16 29 C15.01 29.33 14.02 29.66 13 30 C13.99 32.64 14.98 35.28 16 38 C18.31 36.35 20.62 34.7 23 33 C22.61912809 36.33262917 22.10840904 37.86859511 19.9375 40.5 C17.74838462 43.32466501 17.60287146 44.52512531 18 48 C17.34 47.34 16.68 46.68 16 46 C16 45.01 16 44.02 16 43 C13.03 44.65 10.06 46.3 7 48 C7.66 49.65 8.32 51.3 9 53 C12.82097239 52.46930939 15.06171403 51.50298434 18 49 C18.99 49.495 18.99 49.495 20 50 C10.75027645 57.95906445 4.11629181 59.19403314 -8 59 C-6.68 58.34 -5.36 57.68 -4 57 C-8.16469029 52.53783183 -12.35955468 52.34965966 -18.10546875 51.5703125 C-21.9343404 50.81590594 -24.03460535 49.47116221 -27 47 C-26.01 46.505 -26.01 46.505 -25 46 C-24.443125 46.309375 -23.88625 46.61875 -23.3125 46.9375 C-20.15946578 48.3861914 -17.42532653 48.13174333 -14 48 C-14.85334283 44.95234447 -14.85334283 44.95234447 -17 42 C-19.22560933 41.25376628 -21.38542576 40.92617982 -23.703125 40.56640625 C-27.37502186 39.66092148 -29.32651069 37.60493831 -32 35 C-31.67 34.01 -31.34 33.02 -31 32 C-30.505 32.61875 -30.01 33.2375 -29.5 33.875 C-26.11778563 36.74988222 -23.32742915 37.13451417 -19 38 C-19.33 35.03 -19.66 32.06 -20 29 C-20.886875 28.938125 -21.77375 28.87625 -22.6875 28.8125 C-26.89472645 27.7805388 -28.48167576 26.51039137 -31 23 C-30.8125 19.1875 -30.8125 19.1875 -30 16 C-29.67 16 -29.34 16 -29 16 C-28.814375 17.11375 -28.62875 18.2275 -28.4375 19.375 C-27.963125 20.57125 -27.48875 21.7675 -27 23 C-23.48599332 24.54086322 -23.48599332 24.54086322 -20 25 C-20 22.36 -20 19.72 -20 17 C-20.639375 16.855625 -21.27875 16.71125 -21.9375 16.5625 C-24 16 -24 16 -25 15 C-25.4375 12.3125 -25.4375 12.3125 -25 9 C-23.19422788 6.6677637 -21.23849185 4.95868037 -19 3 C-18.34 3.33 -17.68 3.66 -17 4 C-17.825 4.7425 -18.65 5.485 -19.5 6.25 C-22.44844853 8.87387385 -22.44844853 8.87387385 -22 13 C-20.68 13.33 -19.36 13.66 -18 14 C-17.67 13.34 -17.34 12.68 -17 12 C-17 12.66 -17 13.32 -17 14 C-15.35 14 -13.7 14 -12 14 C-11.67 13.01 -11.34 12.02 -11 11 C-11 11.66 -11 12.32 -11 13 C-9.35 12.67 -7.7 12.34 -6 12 C-6.99 10.35 -7.98 8.7 -9 7 C-7.02 7.66 -5.04 8.32 -3 9 C-0.90250005 6.64031256 -0.03094296 5.45383006 0.1875 2.25 C0.125625 1.5075 0.06375 0.765 0 0 Z " fill="#DFE0E2" transform="translate(66,14)"/>
<path d="M0 0 C3.80536598 2.32458226 6.32093424 5.32936847 8.3125 9.3125 C8.83468624 16.49256086 9.20306869 23.0875901 5.3125 29.3125 C1.0619982 33.86065599 -2.4817308 35.19757014 -8.5859375 35.515625 C-10.07805671 35.53678981 -11.57026594 35.5522441 -13.0625 35.5625 C-13.805 35.583125 -14.5475 35.60375 -15.3125 35.625 C-20.89442241 35.66444821 -25.06030181 34.70880429 -29.33203125 30.8125 C-34.43519542 24.25860354 -34.23458892 18.38952186 -33.6875 10.3125 C-32.08988632 5.51965896 -29.90682884 3.05996995 -25.6875 0.3125 C-17.95379015 -2.78991175 -7.71429593 -3.58838248 0 0 Z " fill="#F5F5F4" transform="translate(355.6875,61.6875)"/>
<path d="M0 0 C2.45131173 1.49508883 3.97769894 2.87658389 6 5 C6 6.32 6 7.64 6 9 C1.38 9 -3.24 9 -8 9 C-8 8.34 -8 7.68 -8 7 C-10.97 7 -13.94 7 -17 7 C-17 7.99 -17 8.98 -17 10 C-16.45061768 10.06993164 -15.90123535 10.13986328 -15.33520508 10.21191406 C-12.82510095 10.5411254 -10.31912492 10.89530618 -7.8125 11.25 C-6.94818359 11.35957031 -6.08386719 11.46914062 -5.19335938 11.58203125 C-0.07172507 12.32770981 3.26386193 13.13657867 7 17 C8.60904424 20.21808847 8.45637009 23.5101111 8 27 C6.14651893 30.626376 3.9856473 32.27490345 0.3125 33.8125 C-4.32018065 35.16369852 -8.89475615 35.31485294 -13.6875 35.375 C-14.41219482 35.38893799 -15.13688965 35.40287598 -15.88354492 35.41723633 C-20.63477827 35.37526719 -23.85976084 34.54640273 -28 32 C-30.88092425 29.02304494 -31 28.33178252 -31 24 C-26.38 24 -21.76 24 -17 24 C-16.67 24.99 -16.34 25.98 -16 27 C-12.04 26.505 -12.04 26.505 -8 26 C-7.67 24.68 -7.34 23.36 -7 22 C-7.55461914 21.92483154 -8.10923828 21.84966309 -8.68066406 21.7722168 C-11.20565225 21.42293204 -13.72766228 21.05541719 -16.25 20.6875 C-17.12269531 20.56955078 -17.99539062 20.45160156 -18.89453125 20.33007812 C-27.1517151 19.10095534 -27.1517151 19.10095534 -30 16 C-31.23963488 12.28109537 -31.67812733 8.85779104 -31 5 C-23.59251041 -4.46512559 -10.56954954 -3.96358108 0 0 Z " fill="#F3F4F4" transform="translate(249,62)"/>
<path d="M0 0 C2.02633774 -0.01712126 4.05100397 -0.06097371 6.0769043 -0.10522461 C8.00373047 -0.11779297 8.00373047 -0.11779297 9.96948242 -0.13061523 C11.73521606 -0.15248901 11.73521606 -0.15248901 13.53662109 -0.17480469 C17.55568007 0.39285901 19.71472432 1.7839737 22.86401367 4.29516602 C24.95068109 8.46850085 24.31251023 13.74959277 23.86401367 18.29516602 C21.77185855 21.97447329 20.85253348 22.96565941 16.86401367 24.29516602 C15.45576474 24.375386 14.04404137 24.40282579 12.63354492 24.39282227 C11.83110352 24.38959961 11.02866211 24.38637695 10.2019043 24.38305664 C8.95183594 24.37048828 8.95183594 24.37048828 7.67651367 24.35766602 C6.8315332 24.3531543 5.98655273 24.34864258 5.1159668 24.34399414 C3.03195212 24.33222005 0.9479739 24.31428492 -1.13598633 24.29516602 C-1.13598633 27.92516602 -1.13598633 31.55516602 -1.13598633 35.29516602 C-5.09598633 35.29516602 -9.05598633 35.29516602 -13.13598633 35.29516602 C-13.16063823 30.471358 -13.17882325 25.64758635 -13.19091797 20.82373047 C-13.19595807 19.18147137 -13.20279011 17.53921678 -13.21142578 15.89697266 C-13.22350558 13.54141123 -13.22921771 11.18590893 -13.23364258 8.83032227 C-13.23880386 8.09177505 -13.24396515 7.35322784 -13.24928284 6.59230042 C-13.24947883 4.82618514 -13.19793351 3.06019456 -13.13598633 1.29516602 C-10.53198826 -1.30883205 -3.52972348 0.02077555 0 0 Z " fill="#F4F4F4" transform="translate(110.135986328125,60.704833984375)"/>
<path d="M0 0 C7.0228125 -0.0928125 7.0228125 -0.0928125 14.1875 -0.1875 C15.65598389 -0.21481201 17.12446777 -0.24212402 18.63745117 -0.27026367 C19.80252197 -0.27775635 20.96759277 -0.28524902 22.16796875 -0.29296875 C23.35672607 -0.3086792 24.5454834 -0.32438965 25.77026367 -0.34057617 C30.17859192 0.12428269 32.76441551 1.70236651 35.7890625 4.87890625 C37.97619728 8.70991976 37.50574174 12.72544306 37 17 C35.73394688 20.19844999 34.94630249 21.48741948 31.9375 23.1171875 C27.9665419 24.31058714 24.30648789 24.21476839 20.1875 24.125 C19.00510742 24.11146484 19.00510742 24.11146484 17.79882812 24.09765625 C15.86575334 24.07422504 13.9328362 24.03835838 12 24 C12 27.63 12 31.26 12 35 C8.04 35 4.08 35 0 35 C0 23.45 0 11.9 0 0 Z " fill="#F5F6F5" transform="translate(177,61)"/>
<path d="M0 0 C2.90082729 1.8464991 4.96252018 3.75649656 6.6875 6.75 C6.6875 8.73 6.6875 10.71 6.6875 12.75 C2.3975 12.75 -1.8925 12.75 -6.3125 12.75 C-6.9725 11.43 -7.6325 10.11 -8.3125 8.75 C-11.3957635 7.20836825 -13.92128099 7.45252465 -17.3125 7.75 C-19.42849242 9.87085677 -20.23270061 11.25477438 -20.7109375 14.22265625 C-20.70320313 15.07730469 -20.69546875 15.93195313 -20.6875 16.8125 C-20.69523437 17.66972656 -20.70296875 18.52695313 -20.7109375 19.41015625 C-20.48130272 21.78795287 -20.48130272 21.78795287 -19.0390625 23.53125 C-16.97543548 24.9879279 -15.82215417 25.18274687 -13.3125 25.1875 C-12.2915625 25.21650391 -12.2915625 25.21650391 -11.25 25.24609375 C-9.10697132 24.92818515 -9.10697132 24.92818515 -7.98046875 22.73828125 C-6.3125 20.75 -6.3125 20.75 -3.17578125 20.359375 C-2.00402344 20.40578125 -0.83226562 20.4521875 0.375 20.5 C1.55449219 20.53609375 2.73398437 20.5721875 3.94921875 20.609375 C5.30466797 20.67898437 5.30466797 20.67898437 6.6875 20.75 C5.99314193 25.63747183 5.34903537 28.27623568 1.6875 31.75 C-5.82611664 35.9402862 -16.48123089 36.39614774 -24.76171875 34.05859375 C-28.85006751 31.93903767 -31.16200302 28.72014828 -33.3125 24.75 C-35.03209369 19.2194149 -35.42629125 12.88839311 -33.4765625 7.39453125 C-31.15611702 3.24420427 -28.35246808 0.24733913 -23.9453125 -1.62109375 C-16.22519 -3.46521797 -7.13450112 -3.77777682 0 0 Z " fill="#F3F3F3" transform="translate(311.3125,62.25)"/>
<path d="M0 0 C10.89 0 21.78 0 33 0 C33 2.97 33 5.94 33 9 C26.07 9 19.14 9 12 9 C12 10.65 12 12.3 12 14 C18.27 14 24.54 14 31 14 C31 16.64 31 19.28 31 22 C24.73 22 18.46 22 12 22 C12 23.32 12 24.64 12 26 C18.93 26 25.86 26 33 26 C33 28.97 33 31.94 33 35 C22.11 35 11.22 35 0 35 C0 23.45 0 11.9 0 0 Z " fill="#F0F0F0" transform="translate(139,61)"/>
<path d="M0 0 C3.96 0 7.92 0 12 0 C12 11.55 12 23.1 12 35 C8.04 35 4.08 35 0 35 C0 23.45 0 11.9 0 0 Z " fill="#F5F5F5" transform="translate(261,61)"/>
<path d="M0 0 C0.99 0.33 1.98 0.66 3 1 C3 2.98 3 4.96 3 7 C5.31 7.66 7.62 8.32 10 9 C9.67 6.36 9.34 3.72 9 1 C10.9375 1.5625 10.9375 1.5625 13 3 C13.94284862 6.91644812 14.38087404 10.16423878 13 14 C12.34 14 11.68 14 11 14 C10.71125 14.5775 10.4225 15.155 10.125 15.75 C9.08333333 17.83333333 8.04166667 19.91666667 7 22 C7.99 23.32 8.98 24.64 10 26 C12.31 25.34 14.62 24.68 17 24 C16.505 26.475 16.505 26.475 16 29 C15.01 29.33 14.02 29.66 13 30 C13.99 32.64 14.98 35.28 16 38 C18.31 36.35 20.62 34.7 23 33 C22.61912809 36.33262917 22.10840904 37.86859511 19.9375 40.5 C17.74838462 43.32466501 17.60287146 44.52512531 18 48 C17.34 47.34 16.68 46.68 16 46 C16 45.01 16 44.02 16 43 C15.37351563 43.3609375 14.74703125 43.721875 14.1015625 44.09375 C13.28429687 44.5578125 12.46703125 45.021875 11.625 45.5 C10.81289062 45.9640625 10.00078125 46.428125 9.1640625 46.90625 C7 48 7 48 5 48 C5 47.34 5 46.68 5 46 C4.34 45.67 3.68 45.34 3 45 C4.27057182 44.52014033 5.54146848 44.0411407 6.8125 43.5625 C7.52019531 43.29566406 8.22789063 43.02882812 8.95703125 42.75390625 C10.62672396 42.13774814 12.31157704 41.56280765 14 41 C13.01 38.69 12.02 36.38 11 34 C3.93225889 36.00345494 3.93225889 36.00345494 -2 40 C-2 37.8125 -2 37.8125 -1 35 C1.50803179 33.03811466 4.19641043 31.50078257 7 30 C6.47731534 27.23723823 5.89130413 24.6739124 5 22 C4.16855469 22.34933594 3.33710937 22.69867188 2.48046875 23.05859375 C1.39378906 23.51363281 0.30710937 23.96867187 -0.8125 24.4375 C-2.43091797 25.11619141 -2.43091797 25.11619141 -4.08203125 25.80859375 C-7.8521549 27.34793473 -10.64048851 28.12115234 -14.6875 28.0625 C-15.89986328 28.04896484 -15.89986328 28.04896484 -17.13671875 28.03515625 C-17.75160156 28.02355469 -18.36648437 28.01195313 -19 28 C-19 27.34 -19 26.68 -19 26 C-18.11957031 25.81824219 -17.23914062 25.63648437 -16.33203125 25.44921875 C-15.17058594 25.19785156 -14.00914063 24.94648437 -12.8125 24.6875 C-11.66394531 24.44386719 -10.51539063 24.20023438 -9.33203125 23.94921875 C-6.09793067 23.02789819 -3.83779337 21.74972752 -1 20 C-0.01 20 0.98 20 2 20 C2 19.34 2 18.68 2 18 C2.66 18 3.32 18 4 18 C4 17.34 4 16.68 4 16 C5.62553283 14.29319053 7.29115995 12.62339805 9 11 C6.03 10.34 3.06 9.68 0 9 C0 6.03 0 3.06 0 0 Z " fill="#D1CED0" transform="translate(66,14)"/>
<path d="M0 0 C0.66 0.33 1.32 0.66 2 1 C1.97679688 1.90363281 1.95359375 2.80726562 1.9296875 3.73828125 C1.91164063 4.91777344 1.89359375 6.09726562 1.875 7.3125 C1.85179688 8.48425781 1.82859375 9.65601563 1.8046875 10.86328125 C1.74679382 14.16393661 1.74679382 14.16393661 4 17 C4.66 15.35 5.32 13.7 6 12 C6.33 12 6.66 12 7 12 C7.125 17.75 7.125 17.75 6 20 C5.77141886 22.0374763 5.58975722 24.08040303 5.4375 26.125 C5.35371094 27.22070312 5.26992187 28.31640625 5.18359375 29.4453125 C5.09271484 30.70988281 5.09271484 30.70988281 5 32 C4.34 32 3.68 32 3 32 C2.34 29.36 1.68 26.72 1 24 C-0.98 25.65 -2.96 27.3 -5 29 C-8 23.375 -8 23.375 -8 20 C-7.01 19.34 -6.02 18.68 -5 18 C-4.27617533 15.94074861 -4.27617533 15.94074861 -4 14 C-5.1446875 14.7734375 -5.1446875 14.7734375 -6.3125 15.5625 C-7.199375 16.036875 -8.08625 16.51125 -9 17 C-12.39914975 15.86695008 -13.05254451 14.87481525 -15 12 C-13.44499019 8.18315774 -10.96404505 5.80804268 -8 3 C-5.69 4.65 -3.38 6.3 -1 8 C-0.67 5.36 -0.34 2.72 0 0 Z " fill="#D7D7D9" transform="translate(87,24)"/>
<path d="M0 0 C2.9375 1.375 2.9375 1.375 5 4 C5.79830573 9.00604217 5.74569261 13.62252567 3 18 C-0.47187961 19.7359398 -4.21151469 19.58284389 -8 19 C-11.16306563 16.12448579 -11.23221193 13.02514783 -11.4375 8.9375 C-11.32026711 5.65986368 -11.14153219 4.23777408 -9.4375 1.375 C-6.02395694 -0.55058839 -3.86308787 -0.54218777 0 0 Z " fill="#752121" transform="translate(346,69)"/>
<path d="M0 0 C0.75 2.6875 0.75 2.6875 1 6 C-0.9375 8.875 -0.9375 8.875 -3 11 C-4.32 10.67 -5.64 10.34 -7 10 C-6.67 10.99 -6.34 11.98 -6 13 C-11.39460953 15.27141454 -16.26157749 15.20413361 -22 15 C-22.875 12.9375 -22.875 12.9375 -23 10 C-17.49553914 0.71756969 -10.09324693 -0.48490688 0 0 Z " fill="#7C3233" transform="translate(66,13)"/>
<path d="M0 0 C1.64820195 2.60242414 2 3.86248779 2 7 C-4.20898438 11.01757812 -4.20898438 11.01757812 -7.8125 10.9375 C-10 10 -10 10 -12 7 C-12 5.68 -12 4.36 -12 3 C-10.5682384 2.30062798 -9.12932968 1.61587282 -7.6875 0.9375 C-6.48673828 0.36322266 -6.48673828 0.36322266 -5.26171875 -0.22265625 C-3 -1 -3 -1 0 0 Z " fill="#792829" transform="translate(78,48)"/>
<path d="M0 0 C3 4.17857143 3 4.17857143 3 7 C-1.1205746 8.99785435 -4.45194365 9.17835515 -9 9 C-10.32 6.36 -11.64 3.72 -13 1 C-3.5033557 -1.37416107 -3.5033557 -1.37416107 0 0 Z " fill="#792828" transform="translate(64,54)"/>
<path d="M0 0 C1.85518115 2.38523291 2.94570466 4.07697918 3.125 7.125 C1.24410668 10.2598222 -1.65871448 10.84783258 -5 12 C-5.99 12 -6.98 12 -8 12 C-9.4746622 9.65788944 -10 8.23155496 -10 5.4375 C-9 3 -9 3 -6.125 1.1875 C-3 0 -3 0 0 0 Z " fill="#782627" transform="translate(71,36)"/>
<path d="M0 0 C2.31141604 2.85074644 3 4.3139451 3 8 C-0.63 8.66 -4.26 9.32 -8 10 C-10 5 -10 5 -10 1 C-6.58827648 -0.04976108 -3.55430783 -0.45374142 0 0 Z " fill="#782727" transform="translate(58,42)"/>
<path d="M0 0 C1.79133978 -0.05391993 3.58313899 -0.09275571 5.375 -0.125 C6.37273437 -0.14820312 7.37046875 -0.17140625 8.3984375 -0.1953125 C11 0 11 0 13 2 C12.44444444 6.55555556 12.44444444 6.55555556 11 8 C9.14712498 8.07226502 7.29166122 8.0838122 5.4375 8.0625 C4.42558594 8.05347656 3.41367188 8.04445313 2.37109375 8.03515625 C1.58863281 8.02355469 0.80617188 8.01195313 0 8 C0 5.36 0 2.72 0 0 Z " fill="#803638" transform="translate(109,69)"/>
<path d="M0 0 C1.62490954 -0.02698189 3.24994633 -0.04638757 4.875 -0.0625 C5.77992188 -0.07410156 6.68484375 -0.08570312 7.6171875 -0.09765625 C10 0 10 0 12 1 C12.04254356 2.99954746 12.04080783 5.00041636 12 7 C11 8 11 8 8.49609375 8.09765625 C6.98208984 8.08025391 6.98208984 8.08025391 5.4375 8.0625 C4.42558594 8.05347656 3.41367188 8.04445313 2.37109375 8.03515625 C1.58863281 8.02355469 0.80617187 8.01195313 0 8 C0 5.36 0 2.72 0 0 Z " fill="#7D3032" transform="translate(189,69)"/>
<path d="M0 0 C1.74271938 2.297221 3.39911152 4.59866729 5 7 C6.98 5.35 8.96 3.7 11 2 C10.61912809 5.33262917 10.10840904 6.86859511 7.9375 9.5 C5.74838462 12.32466501 5.60287146 13.52512531 6 17 C5.34 16.34 4.68 15.68 4 15 C4 14.01 4 13.02 4 12 C3.37351562 12.3609375 2.74703125 12.721875 2.1015625 13.09375 C1.28429687 13.5578125 0.46703125 14.021875 -0.375 14.5 C-1.18710938 14.9640625 -1.99921875 15.428125 -2.8359375 15.90625 C-5 17 -5 17 -7 17 C-7 16.34 -7 15.68 -7 15 C-7.66 14.67 -8.32 14.34 -9 14 C-7.72942818 13.52014033 -6.45853152 13.0411407 -5.1875 12.5625 C-4.47980469 12.29566406 -3.77210937 12.02882813 -3.04296875 11.75390625 C-1.37327604 11.13774814 0.31157704 10.56280765 2 10 C0.68 7.03 -0.64 4.06 -2 1 C-1.34 0.67 -0.68 0.34 0 0 Z " fill="#DEDFE1" transform="translate(78,45)"/>
<path d="M0 0 C0.33 0 0.66 0 1 0 C1.185625 1.11375 1.37125 2.2275 1.5625 3.375 C2.036875 4.57125 2.51125 5.7675 3 7 C6.51400668 8.54086322 6.51400668 8.54086322 10 9 C10 6.36 10 3.72 10 1 C10.66 1 11.32 1 12 1 C12 3.64 12 6.28 12 9 C13.32 9.33 14.64 9.66 16 10 C14.35 10 12.7 10 11 10 C11 10.66 11 11.32 11 12 C12.65 12 14.3 12 16 12 C14.68 12.33 13.36 12.66 12 13 C12.20625 14.11375 12.4125 15.2275 12.625 16.375 C12.74875 17.57125 12.8725 18.7675 13 20 C12.34 20.66 11.68 21.32 11 22 C10.67 19.03 10.34 16.06 10 13 C8.6696875 12.9071875 8.6696875 12.9071875 7.3125 12.8125 C3.10527355 11.7805388 1.51832424 10.51039137 -1 7 C-0.8125 3.1875 -0.8125 3.1875 0 0 Z " fill="#CCC8CB" transform="translate(36,30)"/>
<path d="M0 0 C2 3 2 3 3 5 C3.66 5 4.32 5 5 5 C5.33 4.01 5.66 3.02 6 2 C6.66 2.33 7.32 2.66 8 3 C5.19771852 6.11364609 2.92173579 7.59219741 -1 9 C-1.99 9.66 -2.98 10.32 -4 11 C-6.0625 10.9375 -6.0625 10.9375 -8 10 C-9.25 7.4375 -9.25 7.4375 -10 5 C-8.71186658 4.16121545 -7.41936744 3.32913217 -6.125 2.5 C-5.40570313 2.0359375 -4.68640625 1.571875 -3.9453125 1.09375 C-2 0 -2 0 0 0 Z " fill="#80393A" transform="translate(82,57)"/>
<path d="M0 0 C1.43716841 2.2825616 2 3.71743071 2 6.4375 C0.53985626 10.17911832 -1.79951643 11.61666117 -5 14 C-8 8.375 -8 8.375 -8 5 C-3.69767442 0 -3.69767442 0 0 0 Z " fill="#792828" transform="translate(87,39)"/>
<path d="M0 0 C2.46800047 1.15173355 4.04783565 2.04783565 6 4 C5.74739753 7.78903708 3.72150557 9.54186593 1 12 C-2.39914975 10.86695008 -3.05254451 9.87481525 -5 7 C-3.70700306 4.11562221 -2.34058637 2.12780579 0 0 Z " fill="#772525" transform="translate(77,29)"/>
<path d="M0 0 C-0.171875 2.26953125 -0.171875 2.26953125 -1 5 C-3.328125 6.94921875 -3.328125 6.94921875 -6.25 8.6875 C-7.20390625 9.26886719 -8.1578125 9.85023437 -9.140625 10.44921875 C-12 12 -12 12 -14.734375 13.08203125 C-17.14881398 13.88893112 -17.14881398 13.88893112 -19 16 C-19 13.8125 -19 13.8125 -18 11 C-15.11961214 8.65770658 -11.81180628 6 -8 6 C-8 5.34 -8 4.68 -8 4 C-7.01 4 -6.02 4 -5 4 C-5 3.34 -5 2.68 -5 2 C-2 0 -2 0 0 0 Z " fill="#EBF2F1" transform="translate(83,38)"/>
<path d="M0 0 C1.6875 2.5625 1.6875 2.5625 3 5 C0.25129997 6.86911602 -1.1070295 6.99426628 -4.5 6.8125 C-7.86042195 6.03240205 -9.58602706 5.41397294 -12 3 C-12 2.34 -12 1.68 -12 1 C-10.56496445 0.63597631 -9.12683494 0.28413409 -7.6875 -0.0625 C-6.88699219 -0.25972656 -6.08648437 -0.45695312 -5.26171875 -0.66015625 C-3 -1 -3 -1 0 0 Z " fill="#7A2C2D" transform="translate(71,64)"/>
<path d="M0 0 C0.33 1.32 0.66 2.64 1 4 C-6.56759347 9.62718489 -13.61577584 11.44686782 -23 11 C-23 10.34 -23 9.68 -23 9 C-22.11957031 8.81824219 -21.23914062 8.63648438 -20.33203125 8.44921875 C-18.58986328 8.07216797 -18.58986328 8.07216797 -16.8125 7.6875 C-15.66394531 7.44386719 -14.51539063 7.20023438 -13.33203125 6.94921875 C-10.09793067 6.02789819 -7.83779337 4.74972752 -5 3 C-4.01 3 -3.02 3 -2 3 C-2 2.34 -2 1.68 -2 1 C-1.34 0.67 -0.68 0.34 0 0 Z " fill="#F1F6F6" transform="translate(70,31)"/>
<path d="M0 0 C1.32 1.65 2.64 3.3 4 5 C7.82097239 4.46930939 10.06171403 3.50298434 13 1 C13.66 1.33 14.32 1.66 15 2 C5.75027645 9.95906445 -0.88370819 11.19403314 -13 11 C-11.68 10.34 -10.36 9.68 -9 9 C-9.33 8.34 -9.66 7.68 -10 7 C-9.38511719 7.09539062 -8.77023438 7.19078125 -8.13671875 7.2890625 C-6.92435547 7.45535156 -6.92435547 7.45535156 -5.6875 7.625 C-4.88699219 7.74101563 -4.08648437 7.85703125 -3.26171875 7.9765625 C-0.71276785 8.21533407 -0.71276785 8.21533407 2 6 C1.34 5.34 0.68 4.68 0 4 C0 2.68 0 1.36 0 0 Z " fill="#C0BBBE" transform="translate(71,62)"/>
<path d="M0 0 C1.65 1.32 3.3 2.64 5 4 C4.00269864 6.4932534 3.34925469 7.77467439 1.0625 9.25 C-1 10 -1 10 -4 10 C-4.66 7.69 -5.32 5.38 -6 3 C-4.02 2.01 -2.04 1.02 0 0 Z " fill="#7B2D2D" transform="translate(62,27)"/>
<path d="M0 0 C3.5625 0.125 3.5625 0.125 5.5625 1.125 C5.5625 1.785 5.5625 2.445 5.5625 3.125 C10.1825 3.125 14.8025 3.125 19.5625 3.125 C19.5625 3.455 19.5625 3.785 19.5625 4.125 C18.33273438 4.21587891 18.33273438 4.21587891 17.078125 4.30859375 C15.46164063 4.43427734 15.46164063 4.43427734 13.8125 4.5625 C12.74515625 4.64371094 11.6778125 4.72492188 10.578125 4.80859375 C7.68212365 5.03619089 7.68212365 5.03619089 5.40625 5.6875 C2.39159786 6.40284119 -0.42561933 5.64628704 -3.4375 5.125 C-4 3.1875 -4 3.1875 -4.4375 1.125 C-3.4375 0.125 -3.4375 0.125 0 0 Z " fill="#833B3C" transform="translate(235.4375,67.875)"/>
<path d="M0 0 C2.31 0 4.62 0 7 0 C7.33 2.64 7.66 5.28 8 8 C5.36 8 2.72 8 0 8 C0 5.36 0 2.72 0 0 Z " fill="#79292A" transform="translate(48,31)"/>
<path d="M0 0 C3.465 1.485 3.465 1.485 7 3 C5.9024777 5.99324263 5.32317108 6.84610901 2.375 8.25 C1.59125 8.4975 0.8075 8.745 0 9 C-0.99 7.68 -1.98 6.36 -3 5 C-1.125 1.125 -1.125 1.125 0 0 Z " fill="#7C2E2F" transform="translate(68,22)"/>
<path d="M0 0 C0.33 0 0.66 0 1 0 C1.125 5.75 1.125 5.75 0 8 C-0.22858114 10.0374763 -0.41024278 12.08040303 -0.5625 14.125 C-0.64628906 15.22070312 -0.73007813 16.31640625 -0.81640625 17.4453125 C-0.87699219 18.28835937 -0.93757813 19.13140625 -1 20 C-1.66 20 -2.32 20 -3 20 C-3.95717033 15.21414833 -4.31859498 10.8585734 -4 6 C-2.5625 4.1875 -2.5625 4.1875 -1 3 C-0.67 2.01 -0.34 1.02 0 0 Z " fill="#BEB1B4" transform="translate(93,36)"/>
<path d="M0 0 C1.134375 0.020625 2.26875 0.04125 3.4375 0.0625 C3.4375 0.3925 3.4375 0.7225 3.4375 1.0625 C1.7875 1.3925 0.1375 1.7225 -1.5625 2.0625 C-1.046875 3.01125 -0.53125 3.96 0 4.9375 C0.474375 5.96875 0.94875 7 1.4375 8.0625 C1.1075 8.7225 0.7775 9.3825 0.4375 10.0625 C-3.17932096 11.14373911 -6.96279896 11.75224964 -10.4921875 10.23046875 C-12.125 9.125 -12.125 9.125 -14.5625 7.0625 C-13.9025 6.7325 -13.2425 6.4025 -12.5625 6.0625 C-11.7271875 6.5265625 -11.7271875 6.5265625 -10.875 7 C-7.72196578 8.4486914 -4.98782653 8.19424333 -1.5625 8.0625 C-2.5525 5.7525 -3.5425 3.4425 -4.5625 1.0625 C-3.5625 0.0625 -3.5625 0.0625 0 0 Z " fill="#C4BCC0" transform="translate(53.5625,53.9375)"/>
<path d="M0 0 C0.66 2.64 1.32 5.28 2 8 C3.65 7.67 5.3 7.34 7 7 C6.54625 7.4125 6.0925 7.825 5.625 8.25 C3.94049626 10.06408095 3.00734029 11.75285627 2 14 C1.67 13.01 1.34 12.02 1 11 C-1.01508358 10.26676204 -1.01508358 10.26676204 -3 10 C-2.01 10 -1.02 10 0 10 C-1.87702327 5.10437307 -1.87702327 5.10437307 -5 1 C-2 0 -2 0 0 0 Z " fill="#D5D0D2" transform="translate(61,40)"/>
<path d="M0 0 C0.66 0.33 1.32 0.66 2 1 C1.175 1.7425 0.35 2.485 -0.5 3.25 C-3.44844853 5.87387385 -3.44844853 5.87387385 -3 10 C-1.68 10.33 -0.36 10.66 1 11 C1.33 10.34 1.66 9.68 2 9 C2 9.66 2 10.32 2 11 C2.99 11.33 3.98 11.66 5 12 C-1.625 13 -1.625 13 -5 13 C-6 12 -6 12 -6.4375 9.3125 C-5.80565824 4.52855525 -3.57863809 3.13130833 0 0 Z " fill="#BFB5B8" transform="translate(47,17)"/>
<path d="M0 0 C0.33 0 0.66 0 1 0 C1.185625 1.11375 1.37125 2.2275 1.5625 3.375 C2.036875 4.57125 2.51125 5.7675 3 7 C6.51400668 8.54086322 6.51400668 8.54086322 10 9 C9.01 9.33 8.02 9.66 7 10 C7 10.66 7 11.32 7 12 C7.99 12.33 8.98 12.66 10 13 C6.17606909 12.73321412 4.20217233 12.14625232 1.0625 9.875 C-1 7 -1 7 -0.8125 3.1875 C-0.544375 2.135625 -0.27625 1.08375 0 0 Z " fill="#C6C0C3" transform="translate(36,30)"/>
<path d="M0 0 C-1.75 3.875 -1.75 3.875 -4 5 C-5.87948167 8.75220262 -6.35076435 12.15325933 -6.625 16.3125 C-6.69976562 17.38113281 -6.77453125 18.44976562 -6.8515625 19.55078125 C-6.90054687 20.35902344 -6.94953125 21.16726562 -7 22 C-7.33 22 -7.66 22 -8 22 C-8.58861835 7.30634202 -8.58861835 7.30634202 -3.4375 1.125 C-2 0 -2 0 0 0 Z " fill="#D9D9DA" transform="translate(330,63)"/>
<path d="M0 0 C2.64 0.33 5.28 0.66 8 1 C6.515 3.475 6.515 3.475 5 6 C2.97954558 5.39816251 0.97888961 4.72693904 -1 4 C-1.33 3.34 -1.66 2.68 -2 2 C-1.34 2 -0.68 2 0 2 C0 1.34 0 0.68 0 0 Z " fill="#814042" transform="translate(58,18)"/>
<path d="M0 0 C1.98 0.495 1.98 0.495 4 1 C3.731875 1.70125 3.46375 2.4025 3.1875 3.125 C2.96999265 6.46011275 3.36830612 6.86550387 5.4375 9.3125 C6.283125 10.199375 7.12875 11.08625 8 12 C7.01 12 6.02 12 5 12 C4.67 12.66 4.34 13.32 4 14 C1 8.25 1 8.25 1 6 C0.34 5.67 -0.32 5.34 -1 5 C-0.34 5 0.32 5 1 5 C0.67 3.35 0.34 1.7 0 0 Z " fill="#D7D5D7" transform="translate(70,30)"/>
<path d="M0 0 C0.33 1.32 0.66 2.64 1 4 C-4.75 8 -4.75 8 -7 8 C-7 7.34 -7 6.68 -7 6 C-7.66 5.67 -8.32 5.34 -9 5 C-6.35261084 3.5393715 -5.10551666 3 -2 3 C-2 2.34 -2 1.68 -2 1 C-1.34 0.67 -0.68 0.34 0 0 Z " fill="#E9F0EE" transform="translate(70,31)"/>
<path d="M0 0 C2.5 1.375 2.5 1.375 5 4 C5.44908891 7.37080851 5.29036649 10.61884349 5 14 C4.67 13.01 4.34 12.02 4 11 C3.34 10.67 2.68 10.34 2 10 C2.268125 9.443125 2.53625 8.88625 2.8125 8.3125 C2.874375 7.549375 2.93625 6.78625 3 6 C0.64573501 3.22877725 0.64573501 3.22877725 -2 1 C-1.34 0.67 -0.68 0.34 0 0 Z " fill="#CBC9CB" transform="translate(79,27)"/>
<path d="M0 0 C3.63 0.66 7.26 1.32 11 2 C7.57905758 4.28062828 6.31812778 4.21925007 2.3125 4.125 C0.82169922 4.09792969 0.82169922 4.09792969 -0.69921875 4.0703125 C-1.45847656 4.04710938 -2.21773437 4.02390625 -3 4 C-1.68 3.34 -0.36 2.68 1 2 C0.67 1.34 0.34 0.68 0 0 Z " fill="#CED7DA" transform="translate(61,69)"/>
<path d="M0 0 C2.97 0.495 2.97 0.495 6 1 C5.01 1.33 4.02 1.66 3 2 C3 2.66 3 3.32 3 4 C0.03 4 -2.94 4 -6 4 C-6 3.34 -6 2.68 -6 2 C-4.02 2 -2.04 2 0 2 C0 1.34 0 0.68 0 0 Z " fill="#D8D2D6" transform="translate(54,62)"/>
<path d="M0 0 C-0.33 0.99 -0.66 1.98 -1 3 C-2.64551962 3.71727778 -4.31422289 4.38325228 -6 5 C-6.66 5.66 -7.32 6.32 -8 7 C-7.6875 4.625 -7.6875 4.625 -7 2 C-4 0 -4 0 0 0 Z " fill="#EFF6F6" transform="translate(72,47)"/>
<path d="M0 0 C0.33 0.99 0.66 1.98 1 3 C0.34 3 -0.32 3 -1 3 C-1.66 4.32 -2.32 5.64 -3 7 C-3.99 6.67 -4.98 6.34 -6 6 C-4.95125002 3.37812506 -4.35068687 2.20628639 -1.875 0.75 C-1.25625 0.5025 -0.6375 0.255 0 0 Z " fill="#E7ECEC" transform="translate(78,25)"/>
<path d="M0 0 C0.99 0.33 1.98 0.66 3 1 C3.33 3.31 3.66 5.62 4 8 C2.68 8.33 1.36 8.66 0 9 C0 6.03 0 3.06 0 0 Z " fill="#E6EDED" transform="translate(66,14)"/>
<path d="M0 0 C0.66 2.64 1.32 5.28 2 8 C-1 7 -1 7 -2.0625 5.0625 C-2.371875 4.381875 -2.68125 3.70125 -3 3 C-3.66 2.34 -4.32 1.68 -5 1 C-2 0 -2 0 0 0 Z " fill="#CAC0C3" transform="translate(61,40)"/>
<path d="M0 0 C0.66 0.33 1.32 0.66 2 1 C-4.14285714 6.57142857 -4.14285714 6.57142857 -9 7 C-6.03716687 4.61327331 -3.05729491 2.2646629 0 0 Z " fill="#CED4D7" transform="translate(84,63)"/>
<path d="M0 0 C1.89213369 2.38573379 3.02391783 4.07175348 4 7 C3.67 7.99 3.34 8.98 3 10 C1.68 9.67 0.36 9.34 -1 9 C-0.01 9 0.98 9 2 9 C1.484375 7.88625 0.96875 6.7725 0.4375 5.625 C-0.2740625 3.830625 -0.2740625 3.830625 -1 2 C-0.67 1.34 -0.34 0.68 0 0 Z " fill="#CFC8CB" transform="translate(65,52)"/>
<path d="M0 0 C0.763125 0.61875 1.52625 1.2375 2.3125 1.875 C4.99625809 4.05597052 4.99625809 4.05597052 8 6 C8 6.66 8 7.32 8 8 C4.67689517 6.83242263 2.16638868 5.85051143 0 3 C0 2.01 0 1.02 0 0 Z " fill="#C3BCC0" transform="translate(34,46)"/>
<path d="M0 0 C2.11180592 2.57089417 3.66306057 4.63060567 4 8 C3.34 8.66 2.68 9.32 2 10 C0.68 7.03 -0.64 4.06 -2 1 C-1.34 0.67 -0.68 0.34 0 0 Z " fill="#D3CFD3" transform="translate(78,45)"/>
<path d="M0 0 C-0.33 1.65 -0.66 3.3 -1 5 C-1.99 5.33 -2.98 5.66 -4 6 C-4.33 4.68 -4.66 3.36 -5 2 C-2 0 -2 0 0 0 Z " fill="#E4E5E6" transform="translate(83,38)"/>
<path d="M0 0 C2.31 0 4.62 0 7 0 C7.33 0.99 7.66 1.98 8 3 C5.125 3.1875 5.125 3.1875 2 3 C1.34 2.01 0.68 1.02 0 0 Z " fill="#DEDFE1" transform="translate(41,52)"/>
</svg>
