<?xml version="1.0" encoding="UTF-8"?>
<svg version="1.1" xmlns="http://www.w3.org/2000/svg" width="400" height="120">
<path d="M0 0 C132 0 264 0 400 0 C400 39.6 400 79.2 400 120 C268 120 136 120 0 120 C0 80.4 0 40.8 0 0 Z " fill="none" transform="translate(0,0)"/>
<path d="M0 0 C5.34320052 2.28994308 8.29276818 2.5882006 13.82421875 1.00390625 C18.21224637 -0.10515568 22.82404524 -0.13284513 27.3125 0.375 C28.3025 1.035 29.2925 1.695 30.3125 2.375 C29.7673884 6.47423925 28.5413425 8.88165925 26 12.125 C25.40574219 12.90359375 24.81148437 13.6821875 24.19921875 14.484375 C22.08992799 16.59803282 21.18095511 16.85394118 18.3125 17.375 C16.38633811 18.16472637 14.47040909 18.97964331 12.5625 19.8125 C4.40803813 23.22988922 -2.2880418 24.5891923 -11.1484375 24.8359375 C-13.76156592 25.10949832 -13.76156592 25.10949832 -15 27.0234375 C-15.84484831 29.91320273 -16.11659133 32.62106707 -16.3125 35.625 C-16.38726562 36.70265625 -16.46203125 37.7803125 -16.5390625 38.890625 C-16.58804688 39.71046875 -16.63703125 40.5303125 -16.6875 41.375 C-15.00333984 40.88966797 -15.00333984 40.88966797 -13.28515625 40.39453125 C-8.53525114 39.21202131 -4.00158832 39.04304035 0.875 39.0625 C1.68646484 39.04638672 2.49792969 39.03027344 3.33398438 39.01367188 C9.54983965 39.00865504 13.96610891 40.21603801 19.25 43.625 C21.14000875 46.73795559 20.91253202 48.83481108 20.3125 52.375 C18.50068186 55.38156778 16.50256697 56.93514521 13.3125 58.375 C4.84620076 59.71609456 -3.25738158 58.75396713 -10.6875 54.375 C-13.625 51.8125 -13.625 51.8125 -15.6875 49.375 C-16.285625 48.818125 -16.88375 48.26125 -17.5 47.6875 C-18.6875 46.375 -18.6875 46.375 -18.6875 44.375 C-19.38617188 44.67535156 -20.08484375 44.97570312 -20.8046875 45.28515625 C-21.71476562 45.66542969 -22.62484375 46.04570313 -23.5625 46.4375 C-24.46742187 46.82035156 -25.37234375 47.20320313 -26.3046875 47.59765625 C-28.6875 48.375 -28.6875 48.375 -30.6875 47.375 C-24.0625 43.375 -24.0625 43.375 -20.6875 43.375 C-21.0175 42.715 -21.3475 42.055 -21.6875 41.375 C-21.81077929 39.27351818 -21.86308006 37.16756093 -21.875 35.0625 C-21.88917969 33.93199219 -21.90335938 32.80148438 -21.91796875 31.63671875 C-21.69230137 28.44295157 -21.05092654 26.2473571 -19.6875 23.375 C-20.38875 23.2925 -21.09 23.21 -21.8125 23.125 C-26.0297546 22.02484663 -29.40260801 20.06872127 -32.0625 16.5625 C-33.00457395 13.26524117 -33.10010656 10.7937401 -32.6875 7.375 C-25.28026973 -4.43027325 -12.0719454 -5.19606141 0 0 Z " fill="#213A7D" transform="translate(71.6875,36.625)"/>
<path d="M0 0 C0.99 0 1.98 0 3 0 C2.42099256 4.4726227 0.58571622 7.87399106 -1.6875 11.6875 C-2.04328125 12.29674316 -2.3990625 12.90598633 -2.765625 13.53369141 C-3.83566489 15.3607174 -4.91598084 17.18124 -6 19 C-6.61488281 20.03511719 -7.22976563 21.07023437 -7.86328125 22.13671875 C-9.23383249 24.42969349 -10.61170996 26.71773531 -12 29 C-10.88625 29.45375 -9.7725 29.9075 -8.625 30.375 C-5 32 -5 32 -3 34 C-2.19685659 38.66943845 -2.56982429 42.19898315 -4.8125 46.375 C-5.534375 47.24125 -6.25625 48.1075 -7 49 C-7.4125 49.598125 -7.825 50.19625 -8.25 50.8125 C-11.130855 52.7673659 -14.5537562 53.46964167 -18 53 C-20.91187746 50.88366174 -21.88639643 49.70857822 -22.4609375 46.125 C-22.41839844 44.578125 -22.41839844 44.578125 -22.375 43 C-22.36210937 41.96875 -22.34921875 40.9375 -22.3359375 39.875 C-22.01091829 37.09344028 -21.42920883 35.37820349 -20 33 C-25.30721977 35.35876434 -26.83639731 38.91130316 -29 44 C-29.99 44 -30.98 44 -32 44 C-31.56264942 39.0433601 -29.10638706 36.72766447 -26 33 C-25.31911194 30.39003637 -25.31911194 30.39003637 -25 28 C-29.31656008 31.65790241 -33.41337578 35.39677 -37.3125 39.5 C-45.47347989 47.74554963 -54.18980254 53.0501739 -65.9375 53.125 C-67.62521475 53.09319918 -69.31287918 53.05491533 -71 53 C-71 52.67 -71 52.34 -71 52 C-69.94941406 51.84144531 -68.89882812 51.68289062 -67.81640625 51.51953125 C-54.01832084 49.29276037 -46.14829898 44.77484158 -36 35 C-35.20464844 34.24460938 -34.40929687 33.48921875 -33.58984375 32.7109375 C-30.70600586 29.93925922 -30.70600586 29.93925922 -28 27 C-28 26.34 -28 25.68 -28 25 C-31.93774177 24.63369844 -33.56539771 24.69766797 -36.875 27 C-37.926875 27.99 -37.926875 27.99 -39 29 C-37.75023244 25.34683329 -37.32901247 24.21934164 -34 22 C-30.5625 21.875 -30.5625 21.875 -27 22 C-22.63204596 22 -22.25341007 21.77237852 -19.25 19 C-18.63640625 18.443125 -18.0228125 17.88625 -17.390625 17.3125 C-16.93171875 16.879375 -16.4728125 16.44625 -16 16 C-17.29822754 18.88157982 -18.17238304 20.15186125 -20.625 22.3125 C-23.37334995 24.88197404 -23.37334995 24.88197404 -23.3125 28.8125 C-23.1578125 30.3903125 -23.1578125 30.3903125 -23 32 C-17.89114279 29.57467609 -15.61421356 26.02696216 -12.625 21.4375 C-11.66332379 19.99441607 -10.70108415 18.55170746 -9.73828125 17.109375 C-9.27373535 16.40748047 -8.80918945 15.70558594 -8.33056641 14.98242188 C-6.03244085 11.55842564 -3.5862914 8.24036371 -1.14453125 4.91796875 C0.25621835 2.94288876 0.25621835 2.94288876 0 0 Z " fill="#1C3B82" transform="translate(279,36)"/>
<path d="M0 0 C1.32 0 2.64 0 4 0 C2.38294183 4.72327161 -0.19441376 8.56430741 -2.9375 12.6875 C-7.08276835 19.01254777 -11.15667384 25.37475886 -15.125 31.8125 C-15.59800537 32.57071045 -16.07101074 33.3289209 -16.55834961 34.11010742 C-16.99542236 34.82271729 -17.43249512 35.53532715 -17.8828125 36.26953125 C-18.46119873 37.20696167 -18.46119873 37.20696167 -19.05126953 38.16333008 C-20.04762916 40.09220642 -20.55896581 41.8806345 -21 44 C-15.73708233 40.74684435 -11.79398259 36.92322905 -7.58789062 32.421875 C-3.32162436 27.99345706 1.02481608 24.39294882 7.3125 23.5625 C8.199375 23.706875 9.08625 23.85125 10 24 C10.66 24.99 11.32 25.98 12 27 C12.66 26.34 13.32 25.68 14 25 C16.125 25.375 16.125 25.375 18 26 C17.04287109 27.57201172 17.04287109 27.57201172 16.06640625 29.17578125 C15.23161527 30.55459332 14.39698839 31.93350477 13.5625 33.3125 C13.14162109 34.00279297 12.72074219 34.69308594 12.28710938 35.40429688 C11.68286133 36.40493164 11.68286133 36.40493164 11.06640625 37.42578125 C10.69459229 38.03848877 10.32277832 38.65119629 9.93969727 39.2824707 C8.85021349 41.15281357 8.85021349 41.15281357 8 44 C9.98 43.505 9.98 43.505 12 43 C11.505 43.99 11.505 43.99 11 45 C8.625 44.6875 8.625 44.6875 6 44 C5.34 43.01 4.68 42.02 4 41 C2.9171875 42.0209375 2.9171875 42.0209375 1.8125 43.0625 C-1 45 -1 45 -3.625 45.1875 C-7.21942702 43.39028649 -7.73258725 40.66882638 -9 37 C-9.43570313 37.49371094 -9.87140625 37.98742187 -10.3203125 38.49609375 C-15.19727376 43.74252177 -15.19727376 43.74252177 -19.3125 45.0625 C-22 45 -22 45 -24 43 C-23.96712417 40.27130593 -23.43602229 37.7033382 -23 35 C-23.99 35.495 -23.99 35.495 -25 36 C-23.63055898 33.05043472 -22.12169591 30.47531189 -20 28 C-19.34 28 -18.68 28 -18 28 C-17.61497314 27.18450684 -17.61497314 27.18450684 -17.22216797 26.35253906 C-14.8859019 21.85548357 -12.01331735 17.67608852 -9.23291016 13.44433594 C-8.49208592 12.31138746 -7.75707562 11.1746167 -7.02783203 10.03417969 C-5.97209345 8.38390607 -4.89647168 6.74640536 -3.8203125 5.109375 C-2.86535889 3.63936035 -2.86535889 3.63936035 -1.89111328 2.13964844 C-1.2670459 1.43356445 -0.64297852 0.72748047 0 0 Z " fill="#233A7B" transform="translate(119,44)"/>
<path d="M0 0 C0.86818359 -0.020625 1.73636719 -0.04125 2.63085938 -0.0625 C8.23373417 -0.09637982 12.10710719 0.58817231 17.0625 3.25 C17.7225 3.91 18.3825 4.57 19.0625 5.25 C19 7.625 19 7.625 18.0625 10.25 C12.36026958 15.65211303 7.16042447 15.65234569 -0.41015625 15.59765625 C-6.75235699 14.9725667 -10.11863271 12.11433897 -14.4375 7.6875 C-15.9375 5.25 -15.9375 5.25 -15.9375 1.25 C-10.60544185 0.16432642 -5.41805447 0.0320358 0 0 Z " fill="#711C1D" transform="translate(71.9375,77.75)"/>
<path d="M0 0 C1.72265625 0.8515625 1.72265625 0.8515625 2.72265625 2.8515625 C2.04460937 3.18027344 1.3665625 3.50898437 0.66796875 3.84765625 C-5.87478068 7.1915268 -10.80370313 10.87993435 -15.890625 16.19140625 C-18.27734375 17.8515625 -18.27734375 17.8515625 -21.36328125 17.7578125 C-25.4190883 16.49648913 -27.21806387 14.7685503 -30.27734375 11.8515625 C-31.84164623 8.72295755 -31.63361659 6.29553325 -31.27734375 2.8515625 C-23.39169275 -5.0340885 -9.89921386 -3.27219423 0 0 Z " fill="#711C1D" transform="translate(73.27734375,39.1484375)"/>
<path d="M0 0 C6.89097382 2.00947242 13.69712925 2.36409887 20.6875 0.5 C20.6875 1.16 20.6875 1.82 20.6875 2.5 C11.6088662 5.64973009 1.96272576 4.41570928 -7.3125 2.5 C-12.65308296 2.15071818 -12.65308296 2.15071818 -17.3125 4.5 C-16.08273438 4.64695312 -16.08273438 4.64695312 -14.828125 4.796875 C-13.75046875 4.94640625 -12.6728125 5.0959375 -11.5625 5.25 C-10.49515625 5.38921875 -9.4278125 5.5284375 -8.328125 5.671875 C-4.85399012 6.62591204 -3.48836991 7.66100783 -1.3125 10.5 C-0.8125 14 -0.8125 14 -1.3125 17.5 C-3.17958505 19.86497439 -4.63311431 21.16030715 -7.3125 22.5 C-11.08410651 22.91906739 -12.82220134 22.81200824 -16.0625 20.75 C-19.51416184 17.29833816 -20.27270581 15.69382575 -20.4375 10.75 C-20.39625 9.6775 -20.355 8.605 -20.3125 7.5 C-22.2925 8.16 -24.2725 8.82 -26.3125 9.5 C-25.0625 8 -25.0625 8 -23.3125 6.5 C-21.9925 6.5 -20.6725 6.5 -19.3125 6.5 C-19.27125 5.9225 -19.23 5.345 -19.1875 4.75 C-15.90487684 -3.69103099 -6.93034918 -2.04006053 0 0 Z " fill="#6F1E21" transform="translate(164.3125,5.5)"/>
<path d="M0 0 C0.99 0 1.98 0 3 0 C2.649375 0.515625 2.29875 1.03125 1.9375 1.5625 C0.22437715 6.01661941 1.8508433 10.52123543 3 15 C3.74765625 14.22914062 4.4953125 13.45828125 5.265625 12.6640625 C6.26014651 11.65077644 7.25495323 10.63777025 8.25 9.625 C8.74113281 9.11710937 9.23226562 8.60921875 9.73828125 8.0859375 C13.42194696 4.35315624 15.86699455 2.17064044 21.125 1.75 C24 2 24 2 26 4 C25.85554505 7.19348624 25.44394066 8.57715569 23.109375 10.80078125 C22.33078125 11.29964844 21.5521875 11.79851562 20.75 12.3125 C19.98171875 12.82425781 19.2134375 13.33601563 18.421875 13.86328125 C15.73078003 15.12635969 13.93631933 15.22386832 11 15 C11.18415432 17.94091587 11.18415432 17.94091587 12 21 C13.95163118 22.43637698 13.95163118 22.43637698 16 23 C13.75 23.3125 13.75 23.3125 11 23 C8.46161323 20.39110249 7.15259683 18.45779049 6 15 C5.5153125 15.49371094 5.030625 15.98742187 4.53125 16.49609375 C-0.2665036 21.08163902 -3.27801684 23.11589626 -10 23 C-10.66 22.34 -11.32 21.68 -12 21 C-11.625 18.875 -11.625 18.875 -11 17 C-10.01 17 -9.02 17 -8 17 C-8.33 18.65 -8.66 20.3 -9 22 C-5.65323186 20.96134782 -4.97467398 19.95387047 -3.25 16.8125 C-1.83656609 13.17577276 -1.76142098 9.89679063 -2 6 C-3.65 7.32 -5.3 8.64 -7 10 C-5.32127275 6.03209924 -2.91722926 3.13068506 0 0 Z " fill="#263977" transform="translate(149,66)"/>
<path d="M0 0 C2.88181151 0.99510066 4.49808625 1.96632608 6.703125 4.0390625 C7.29867187 4.58691406 7.89421875 5.13476562 8.5078125 5.69921875 C8.94351563 6.12074219 9.37921875 6.54226562 9.828125 6.9765625 C8.828125 9.9765625 8.828125 9.9765625 6.24609375 11.328125 C4.64701172 11.95847656 4.64701172 11.95847656 3.015625 12.6015625 C1.42814453 13.23964844 1.42814453 13.23964844 -0.19140625 13.890625 C-5.01597163 15.6484614 -8.74717469 16.0908095 -13.921875 16.0390625 C-15.09234375 16.03003906 -16.2628125 16.02101563 -17.46875 16.01171875 C-18.36078125 16.00011719 -19.2528125 15.98851563 -20.171875 15.9765625 C-17.29119958 11.19183089 -14.20721927 7.93827945 -9.796875 4.5390625 C-9.24515625 4.08080078 -8.6934375 3.62253906 -8.125 3.15039062 C-5.29463683 0.9478897 -3.62546407 -0.02678914 0 0 Z " fill="#701D1F" transform="translate(80.171875,43.0234375)"/>
<path d="M0 0 C3.40576155 1.94420719 5.74206443 3.82692795 7.6875 7.3125 C7.9375 11.125 7.9375 11.125 7.6875 14.3125 C6.3675 14.3125 5.0475 14.3125 3.6875 14.3125 C3.67332031 13.62542969 3.65914062 12.93835938 3.64453125 12.23046875 C3.51278018 6.64093839 3.51278018 6.64093839 0.5625 2.1875 C-4.3982806 0.67769721 -8.01606072 0.88780438 -12.9375 2.5 C-18.60653861 5.5444837 -22.02140172 9.28329401 -24.3125 15.3125 C-25.06240988 21.09751908 -23.76749524 25.66396094 -20.3125 30.3125 C-17.24487162 32.35074673 -17.24487162 32.35074673 -14.3125 33.3125 C-16.6441805 34.13755618 -17.81366467 34.5281256 -20.12890625 33.52734375 C-24.17228597 30.5694351 -26.78636318 28.25000146 -28.3125 23.3125 C-28.91789136 17.81100605 -29.08334285 13.04689642 -26.8125 7.9375 C-19.33250564 0.08350592 -10.69981448 -4.96920223 0 0 Z " fill="#1A3C85" transform="translate(221.3125,53.6875)"/>
<path d="M0 0 C0.60972656 0.19851562 1.21945312 0.39703125 1.84765625 0.6015625 C-1.08403124 4.77069824 -4.02120825 8.93580428 -6.96875 13.09375 C-8.85207993 15.75171578 -10.7187117 18.41851552 -12.5546875 21.109375 C-13.22628906 22.07617188 -13.89789063 23.04296875 -14.58984375 24.0390625 C-15.16605469 24.88339844 -15.74226563 25.72773437 -16.3359375 26.59765625 C-18.4313492 28.90936851 -20.20368784 29.67599812 -23.15234375 30.6015625 C-23.99952025 23.70312533 -23.99952025 23.70312533 -21.734375 20.7578125 C-20.48736472 19.58790947 -19.22067844 18.43870916 -17.9375 17.30859375 C-15.84195233 15.30475495 -14.77773968 13.06411018 -13.4453125 10.515625 C-10.8107738 6.6155526 -5.06338865 -0.93732421 0 0 Z " fill="#701D1F" transform="translate(278.15234375,38.3984375)"/>
<path d="M0 0 C0.99 -0.33 1.98 -0.66 3 -1 C1.67626885 3.44111801 -0.09246445 7.10944904 -2.5 11.0625 C-4.67997513 14.65114551 -6.49871787 18.08185561 -8 22 C-9.4375 24.3125 -9.4375 24.3125 -11 26 C-11.99 26 -12.98 26 -14 26 C-12.23570801 21.02790438 -9.6060834 16.56561939 -7 12 C-8.65 12.33 -10.3 12.66 -12 13 C-13.25664978 10.09399739 -14 8.20395416 -14 5 C-9.74201488 0.46103109 -6.1979546 -1.87380023 0 0 Z " fill="#6E1E22" transform="translate(196,26)"/>
<path d="M0 0 C3.70843096 0.50113932 5.66204303 1.03052592 8 4 C8.77783201 7.67893517 8.71521681 11.44392018 7.1328125 14.88671875 C5.90703628 16.73433036 4.57044043 18.42955957 3 20 C0.66702567 20.04092937 -1.66705225 20.04241723 -4 20 C-4.51778074 12.30520289 -3.7505733 6.78117047 0 0 Z " fill="#701D20" transform="translate(265,67)"/>
<path d="M0 0 C1.32 0 2.64 0 4 0 C2.61907647 3.74695372 0.8979608 6.97634037 -1.23046875 10.3515625 C-1.86919922 11.36863281 -2.50792969 12.38570312 -3.16601562 13.43359375 C-3.83310547 14.48675781 -4.50019531 15.53992188 -5.1875 16.625 C-5.83525391 17.65496094 -6.48300781 18.68492188 -7.15039062 19.74609375 C-9.74922888 23.87411855 -12.34736093 28.00039427 -15.01416016 32.08496094 C-15.64499512 33.0546582 -16.27583008 34.02435547 -16.92578125 35.0234375 C-17.49337158 35.88630371 -18.06096191 36.74916992 -18.64575195 37.63818359 C-19.89265206 39.81278457 -20.55358241 41.55089856 -21 44 C-20.01 44.33 -19.02 44.66 -18 45 C-19.65 44.67 -21.3 44.34 -23 44 C-23.30099074 38.88315742 -22.88385917 36.21487109 -20 32 C-19.56300781 30.83791016 -19.56300781 30.83791016 -19.1171875 29.65234375 C-17.9016192 26.76643159 -16.40639905 24.6681627 -14.5 22.1875 C-11.94338924 18.78179588 -9.58172578 15.37893654 -7.390625 11.7265625 C-6.95169922 10.99671143 -6.51277344 10.26686035 -6.06054688 9.51489258 C-5.19541328 8.06102332 -4.34224201 6.59996047 -3.50195312 5.1315918 C-2.296875 3.11328125 -2.296875 3.11328125 0 0 Z " fill="#1D3B82" transform="translate(356,44)"/>
<path d="M0 0 C0 3 0 3 -1.3125 4.359375 C-1.869375 4.81828125 -2.42625 5.2771875 -3 5.75 C-5.80859613 8.37399356 -5.97649423 8.75710708 -6.375 12.875 C-6.25125 13.90625 -6.1275 14.9375 -6 16 C-5.01 15.67 -4.02 15.34 -3 15 C-2.505 15.99 -2.505 15.99 -2 17 C-2.9075 17.33 -3.815 17.66 -4.75 18 C-8.98067867 20.60349457 -10.18546088 23.50634723 -12 28 C-12.99 28 -13.98 28 -15 28 C-14.56264942 23.0433601 -12.10638706 20.72766447 -9 17 C-8.31911194 14.39003637 -8.31911194 14.39003637 -8 12 C-12.31656008 15.65790241 -16.41337578 19.39677 -20.3125 23.5 C-28.47347989 31.74554963 -37.18980254 37.0501739 -48.9375 37.125 C-50.62521475 37.09319918 -52.31287918 37.05491533 -54 37 C-54 36.67 -54 36.34 -54 36 C-52.94941406 35.84144531 -51.89882812 35.68289062 -50.81640625 35.51953125 C-37.01832084 33.29276037 -29.14829898 28.77484158 -19 19 C-18.20464844 18.24460937 -17.40929687 17.48921875 -16.58984375 16.7109375 C-13.70600586 13.93925922 -13.70600586 13.93925922 -11 11 C-11 10.34 -11 9.68 -11 9 C-14.93774177 8.63369844 -16.56539771 8.69766797 -19.875 11 C-20.926875 11.99 -20.926875 11.99 -22 13 C-20.75023244 9.34683329 -20.32901247 8.21934164 -17 6 C-13.5625 5.875 -13.5625 5.875 -10 6 C-6.1696916 6.40694193 -6.1696916 6.40694193 -4.296875 4.6875 C-3.53117187 3.8521875 -3.53117187 3.8521875 -2.75 3 C-2.22921875 2.443125 -1.7084375 1.88625 -1.171875 1.3125 C-0.78515625 0.879375 -0.3984375 0.44625 0 0 Z " fill="#30366C" transform="translate(262,52)"/>
<path d="M0 0 C6.89097382 2.00947242 13.69712925 2.36409887 20.6875 0.5 C20.6875 1.16 20.6875 1.82 20.6875 2.5 C11.6088662 5.64973009 1.96272576 4.41570928 -7.3125 2.5 C-12.65308296 2.15071818 -12.65308296 2.15071818 -17.3125 4.5 C-16.08273438 4.64695312 -16.08273438 4.64695312 -14.828125 4.796875 C-13.75046875 4.94640625 -12.6728125 5.0959375 -11.5625 5.25 C-10.49515625 5.38921875 -9.4278125 5.5284375 -8.328125 5.671875 C-4.86118652 6.62393583 -3.48106302 7.66418682 -1.3125 10.5 C-1.0625 13.75 -1.0625 13.75 -1.3125 16.5 C-1.6528125 15.63375 -1.6528125 15.63375 -2 14.75 C-3.97879537 11.35777937 -6.82236942 9.24506529 -10.3125 7.5 C-11.68592831 7.4310528 -13.06252102 7.41532292 -14.4375 7.4375 C-15.71625 7.458125 -16.995 7.47875 -18.3125 7.5 C-18.03396334 11.12097654 -17.80689188 13.76830002 -15.75 16.8125 C-12.3780621 19.14691855 -9.32684249 19.6971315 -5.3125 20.5 C-7.3125 22.5 -7.3125 22.5 -10.125 22.875 C-14.06008325 22.41204903 -15.53618748 21.27631252 -18.3125 18.5 C-20.82917585 15.02459049 -20.47328393 11.68038223 -20.3125 7.5 C-22.2925 8.16 -24.2725 8.82 -26.3125 9.5 C-25.0625 8 -25.0625 8 -23.3125 6.5 C-21.9925 6.5 -20.6725 6.5 -19.3125 6.5 C-19.27125 5.9225 -19.23 5.345 -19.1875 4.75 C-15.90487684 -3.69103099 -6.93034918 -2.04006053 0 0 Z " fill="#353567" transform="translate(164.3125,5.5)"/>
<path d="M0 0 C1.32 0 2.64 0 4 0 C2.35832776 4.83066773 -0.32493495 8.78332558 -3.125 13 C-7.36796865 19.43502271 -7.36796865 19.43502271 -11.3984375 26.00390625 C-11.75663574 26.60783203 -12.11483398 27.21175781 -12.48388672 27.83398438 C-13.44519452 29.46927011 -14.39483481 31.11139838 -15.34375 32.75390625 C-15.8903125 33.49511719 -16.436875 34.23632812 -17 35 C-17.99 35 -18.98 35 -20 35 C-20.33 34.34 -20.66 33.68 -21 33 C-18.63652557 27.48522634 -15.57817258 22.78809887 -12.06640625 17.94140625 C-10.46608791 15.66344838 -8.95167368 13.37810481 -7.46484375 11.02734375 C-7.0260791 10.34164307 -6.58731445 9.65594238 -6.13525391 8.94946289 C-5.26324862 7.58190495 -4.4019385 6.20745977 -3.55224609 4.82592773 C-2.33203125 2.9296875 -2.33203125 2.9296875 0 0 Z " fill="#1B3B84" transform="translate(119,44)"/>
<path d="M0 0 C0.82048828 -0.020625 1.64097656 -0.04125 2.48632812 -0.0625 C8.76881402 -0.10261164 13.15673336 1.0527312 18.5 4.5 C20.39000875 7.61295559 20.16253202 9.70981108 19.5625 13.25 C17.75068186 16.25656778 15.75256697 17.81014521 12.5625 19.25 C4.06490521 20.5960519 -3.95631534 19.57505988 -11.4375 15.25 C-14.0625 13 -14.0625 13 -15.4375 11.25 C-11.98942374 11.25 -11.69123697 11.70156251 -9.125 13.75 C-3.43818183 17.46384043 3.01330434 17.16172097 9.5625 16.25 C12.80624674 14.86968224 15.07252067 13.73997933 17.5625 11.25 C17.79250198 8.72570505 17.79250198 8.72570505 16.5625 6.25 C10.29164365 2.54369555 4.25104533 2.89756483 -2.875 3.0625 C-4.5446582 3.08280273 -4.5446582 3.08280273 -6.24804688 3.10351562 C-8.97837212 3.13867003 -11.70767744 3.18787894 -14.4375 3.25 C-14.7675 2.59 -15.0975 1.93 -15.4375 1.25 C-10.26360026 0.21018871 -5.25503883 0.03286967 0 0 Z " fill="#293773" transform="translate(72.4375,75.75)"/>
<path d="M0 0 C0.5775 0.226875 1.155 0.45375 1.75 0.6875 C1.48140413 7.13380099 -0.89571606 10.97577485 -5.25 15.6875 C-8.25 17.6875 -8.25 17.6875 -12.25 17.6875 C-12.85637975 12.83646201 -12.43289173 10.41680033 -9.5 6.4375 C-3.96531532 -0.55073824 -3.96531532 -0.55073824 0 0 Z " fill="#701D20" transform="translate(127.25,69.3125)"/>
<path d="M0 0 C1.32 0 2.64 0 4 0 C4 1.32 4 2.64 4 4 C8.78655805 3.71110084 8.78655805 3.71110084 12.8125 1.4375 C13.204375 0.963125 13.59625 0.48875 14 0 C14.66 0 15.32 0 16 0 C14.50253294 3.88997191 12.29577922 5.46948052 8.875 7.75 C7.50988281 8.67039062 7.50988281 8.67039062 6.1171875 9.609375 C5.06917969 10.29773438 5.06917969 10.29773438 4 11 C6.475 11.99 6.475 11.99 9 13 C9 15.64 9 18.28 9 21 C5.125 20.125 5.125 20.125 4 19 C3.95936168 17.33382885 3.957279 15.66611905 4 14 C2.70359622 14.59393382 1.41301161 15.20057989 0.125 15.8125 C-0.59429687 16.14894531 -1.31359375 16.48539063 -2.0546875 16.83203125 C-4.30542806 17.99467097 -4.30542806 17.99467097 -6 21 C-6.66 21 -7.32 21 -8 21 C-8 20.01 -8 19.02 -8 18 C-5.953125 16.0625 -5.953125 16.0625 -3.25 14 C-2.36828125 13.319375 -1.4865625 12.63875 -0.578125 11.9375 C0.27265625 11.298125 1.1234375 10.65875 2 10 C2.76828125 9.4225 3.5365625 8.845 4.328125 8.25 C4.87984375 7.8375 5.4315625 7.425 6 7 C1.89776415 5.98459888 1.89776415 5.98459888 -2 7 C-1.34 4.69 -0.68 2.38 0 0 Z " fill="#363566" transform="translate(285,68)"/>
<path d="M0 0 C0.66 0.66 1.32 1.32 2 2 C1.89834392 5.76127491 1.00920966 6.98989184 -1.5625 9.8125 C-2.366875 10.534375 -3.17125 11.25625 -4 12 C-7.03852705 10.59023295 -9.5939595 8.91129772 -12.25 6.875 C-12.95640625 6.33617187 -13.6628125 5.79734375 -14.390625 5.2421875 C-14.92171875 4.83226562 -15.4528125 4.42234375 -16 4 C-12.07184907 0.07184907 -5.36698686 -0.51114161 0 0 Z " fill="#6E1E22" transform="translate(97,38)"/>
<path d="M0 0 C0.4314822 6.0407508 -0.06089087 11.12474457 -4 16 C-6.140625 16.72265625 -6.140625 16.72265625 -8 17 C-7.67 15.35 -7.34 13.7 -7 12 C-10.49529294 13.11213866 -13.74469192 14.31573191 -17 16 C-4.06382979 0 -4.06382979 0 0 0 Z " fill="#66222D" transform="translate(148,71)"/>
<path d="M0 0 C5.52141761 0 8.28783061 2.5851872 12.16796875 6.11328125 C13.97201325 7.97117782 15.49799261 9.89346952 17 12 C14.55924703 11.57669598 12.12342171 11.13710538 9.6875 10.6875 C8.99720703 10.56955078 8.30691406 10.45160156 7.59570312 10.33007812 C4.71745834 9.78780012 2.41974827 9.30792667 0.03515625 7.55859375 C-1.4486609 5.32446905 -1.27531864 3.61552712 -1 1 C-0.67 0.67 -0.34 0.34 0 0 Z " fill="#1D3B81" transform="translate(166,103)"/>
<path d="M0 0 C-1.69873131 4.58739519 -4.06126135 8.47373745 -6.66015625 12.59765625 C-7.88028746 14.78535506 -8.54264626 16.55513373 -9 19 C-7.02 18.34 -5.04 17.68 -3 17 C-4.1875 18.5625 -4.1875 18.5625 -6 20 C-10.42105263 19.57894737 -10.42105263 19.57894737 -12 18 C-11.82364548 15.30917128 -11.38164079 12.67148554 -11 10 C-11.99 10.66 -12.98 11.32 -14 12 C-12.53823872 8.65452573 -10.67661689 6.3497606 -8.125 3.75 C-7.44695312 3.04359375 -6.76890625 2.3371875 -6.0703125 1.609375 C-4 0 -4 0 0 0 Z " fill="#23397B" transform="translate(316,69)"/>
<path d="M0 0 C0.66 0.28875 1.32 0.5775 2 0.875 C2.33 2.525 2.66 4.175 3 5.875 C-0.3899808 8.93773018 -3.27315343 9.48050995 -7.75 10.0625 C-8.92046875 10.22105469 -10.0909375 10.37960938 -11.296875 10.54296875 C-12.18890625 10.65253906 -13.0809375 10.76210937 -14 10.875 C-11.05153816 5.50916571 -6.61964656 -0.27581861 0 0 Z " fill="#1D3B81" transform="translate(227,103.125)"/>
<path d="M0 0 C0.66 0.33 1.32 0.66 2 1 C1.360625 1.721875 0.72125 2.44375 0.0625 3.1875 C-1.98673535 5.98191184 -2.61332946 7.61663274 -3 11 C1.09271386 8.89833613 2.80192518 6.99649968 5 3 C6.6875 1.1875 6.6875 1.1875 8 0 C8.99 0.33 9.98 0.66 11 1 C9.35 3.64 7.7 6.28 6 9 C7.05270463 10.15811388 7.05270463 10.15811388 9 11 C8.34 11.66 7.68 12.32 7 13 C5 12.625 5 12.625 3 12 C0.57202689 12 -1.62907005 12.50085685 -4 13 C-4.99 11.68 -5.98 10.36 -7 9 C-8.98 9.99 -8.98 9.99 -11 11 C-7.6189962 6.86378916 -4.33409466 3.18683431 0 0 Z " fill="#2F366D" transform="translate(245,26)"/>
<path d="M0 0 C1.32 0.33 2.64 0.66 4 1 C3.36191406 2.04800781 2.72382813 3.09601563 2.06640625 4.17578125 C1.23161527 5.55459332 0.39698839 6.93350477 -0.4375 8.3125 C-0.85837891 9.00279297 -1.27925781 9.69308594 -1.71289062 10.40429688 C-2.11572266 11.07138672 -2.51855469 11.73847656 -2.93359375 12.42578125 C-3.30540771 13.03848877 -3.67722168 13.65119629 -4.06030273 14.2824707 C-5.14978651 16.15281357 -5.14978651 16.15281357 -6 19 C-4.68 18.67 -3.36 18.34 -2 18 C-2.33 18.66 -2.66 19.32 -3 20 C-6.68754757 19.50168276 -8.60490662 18.89932357 -11 16 C-9.62159784 13.16661778 -8.13581614 10.44311194 -6.5 7.75 C-6.0771875 7.04359375 -5.654375 6.3371875 -5.21875 5.609375 C-4.61546875 4.81273438 -4.61546875 4.81273438 -4 4 C-3.34 4 -2.68 4 -2 4 C-1.34 2.68 -0.68 1.36 0 0 Z " fill="#1F3A7F" transform="translate(133,69)"/>
<path d="M0 0 C1.45599609 0.00773437 1.45599609 0.00773437 2.94140625 0.015625 C3.90949219 0.01046875 4.87757812 0.0053125 5.875 0 C8.50390625 0.265625 8.50390625 0.265625 11.50390625 2.265625 C10.95879465 6.36486425 9.73274875 8.77228425 7.19140625 12.015625 C6.59714844 12.79421875 6.00289062 13.5728125 5.390625 14.375 C3.34478448 16.42507621 2.30109451 16.81669355 -0.49609375 17.265625 C-1.17671875 17.636875 -1.85734375 18.008125 -2.55859375 18.390625 C-4.49609375 19.265625 -4.49609375 19.265625 -7.49609375 18.265625 C-5.51609375 17.275625 -3.53609375 16.285625 -1.49609375 15.265625 C-2.90539072 11.79430405 -4.40214458 10.38469226 -7.62109375 8.515625 C-8.34554687 8.08765625 -9.07 7.6596875 -9.81640625 7.21875 C-10.37070313 6.90421875 -10.925 6.5896875 -11.49609375 6.265625 C-10.50609375 5.935625 -9.51609375 5.605625 -8.49609375 5.265625 C-6.59375 6.48046875 -6.59375 6.48046875 -4.55859375 8.203125 C-1.37621622 10.89496264 -0.91308273 11.265625 3.50390625 11.265625 C5.92057292 9.09895833 5.92057292 9.09895833 7.50390625 6.265625 C7.17390625 4.945625 6.84390625 3.625625 6.50390625 2.265625 C2.87390625 2.265625 -0.75609375 2.265625 -4.49609375 2.265625 C-2.49609375 0.265625 -2.49609375 0.265625 0 0 Z " fill="#273875" transform="translate(90.49609375,36.734375)"/>
<path d="M0 0 C0.99 0 1.98 0 3 0 C2.66871094 0.50402344 2.33742187 1.00804688 1.99609375 1.52734375 C0.40768171 5.47034306 0.95302067 9.40802946 1.16601562 13.59960938 C1.30795809 18.52843917 1.30795809 18.52843917 -0.25 20.9140625 C-3.43589219 22.89102238 -6.27718183 22.82272294 -10 23 C-10.66 22.34 -11.32 21.68 -12 21 C-11.625 18.875 -11.625 18.875 -11 17 C-10.01 17 -9.02 17 -8 17 C-8.33 18.65 -8.66 20.3 -9 22 C-5.65323186 20.96134782 -4.97467398 19.95387047 -3.25 16.8125 C-1.83656609 13.17577276 -1.76142098 9.89679063 -2 6 C-3.65 7.32 -5.3 8.64 -7 10 C-5.32127275 6.03209924 -2.91722926 3.13068506 0 0 Z " fill="#1A3C86" transform="translate(149,66)"/>
<path d="M0 0 C1.32 0 2.64 0 4 0 C2.70726746 5.0416569 0.33117235 8.68271824 -2.66015625 12.8515625 C-3.96585575 14.94524974 -4.5584282 16.59043536 -5 19 C-3.35 18.34 -1.7 17.68 0 17 C-0.66 17.99 -1.32 18.98 -2 20 C-3.65 19.67 -5.3 19.34 -7 19 C-8.4375 16.625 -8.4375 16.625 -9 13 C-7.04548034 9.36695913 -4.5552397 6.22737884 -2 3 C-1.34 2.01 -0.68 1.02 0 0 Z " fill="#203A7E" transform="translate(325,69)"/>
<path d="M0 0 C-1.32373115 4.44111801 -3.09246445 8.10944904 -5.5 12.0625 C-7.67997513 15.65114551 -9.49871787 19.08185561 -11 23 C-12.4375 25.3125 -12.4375 25.3125 -14 27 C-14.99 27 -15.98 27 -17 27 C-15.23570801 22.02790438 -12.6060834 17.56561939 -10 13 C-10.66 12.67 -11.32 12.34 -12 12 C-11.21625 11.29875 -10.4325 10.5975 -9.625 9.875 C-6.89035386 6.87991138 -6.20433478 4.78505216 -5 1 C-2 0 -2 0 0 0 Z " fill="#263978" transform="translate(199,25)"/>
<path d="M0 0 C0.66 0 1.32 0 2 0 C0.25855652 5.08091745 -2.57131993 9.45508704 -5.375 14 C-5.85710937 14.7940625 -6.33921875 15.588125 -6.8359375 16.40625 C-9.33896487 20.48727288 -11.88897959 24.3434452 -15 28 C-15.66 26.02 -16.32 24.04 -17 22 C-16.030625 21.13375 -15.06125 20.2675 -14.0625 19.375 C-9.44142984 14.80118004 -6.22211219 9.40795781 -2.8203125 3.9140625 C-1 1 -1 1 0 0 Z " fill="#213A7E" transform="translate(244,10)"/>
<path d="M0 0 C0.33 1.32 0.66 2.64 1 4 C-2.28804981 6.91227269 -4.59885603 8.49701212 -9 9 C-8.24849977 12.27773504 -8.24849977 12.27773504 -5 14 C-9.875 13.125 -9.875 13.125 -11 12 C-11.4375 8.75 -11.4375 8.75 -11 5 C-7.58512753 1.26746497 -5.16019034 -0.75885152 0 0 Z " fill="#3D335E" transform="translate(181,25)"/>
<path d="M0 0 C1.10988281 -0.01417969 2.21976563 -0.02835938 3.36328125 -0.04296875 C6.7836836 0.19416843 9.49723443 0.96641499 12.6875 2.1875 C12.3575 2.8475 12.0275 3.5075 11.6875 4.1875 C11.08276855 4.16655273 10.47803711 4.14560547 9.85498047 4.12402344 C7.09099229 4.04041055 4.32727087 3.98869946 1.5625 3.9375 C0.61117187 3.90398438 -0.34015625 3.87046875 -1.3203125 3.8359375 C-7.28994805 3.7530259 -10.84227473 4.07018725 -15.3125 8.1875 C-16.2813059 11.32015479 -16.2813059 11.32015479 -16.3125 14.1875 C-17.5 12.5 -17.5 12.5 -18.3125 10.1875 C-16.48592573 5.62106434 -13.47342842 3.61470825 -9.3125 1.1875 C-6.01262125 0.08754042 -3.47217713 0.02002409 0 0 Z " fill="#30376D" transform="translate(58.3125,33.8125)"/>
<path d="M0 0 C1 3 1 3 1 5 C1.33 5.99 1.66 6.98 2 8 C1.44140625 10.04296875 1.44140625 10.04296875 0.5625 12.1875 C0.27503906 12.90292969 -0.01242188 13.61835937 -0.30859375 14.35546875 C-0.53675781 14.89816406 -0.76492187 15.44085938 -1 16 C3.69165109 13.02480663 7.84703191 9.68606635 12 6 C13 7 13 7 13.0625 9.5625 C13.041875 10.366875 13.02125 11.17125 13 12 C12.34 11.01 11.68 10.02 11 9 C10.56429687 9.49371094 10.12859375 9.98742187 9.6796875 10.49609375 C4.80272624 15.74252177 4.80272624 15.74252177 0.6875 17.0625 C-2 17 -2 17 -4 15 C-3.96712417 12.27130593 -3.43602229 9.7033382 -3 7 C-3.99 7.495 -3.99 7.495 -5 8 C-3.62845496 5.04590299 -2.01136276 2.55991624 0 0 Z " fill="#32366A" transform="translate(99,72)"/>
<path d="M0 0 C3.40576155 1.94420719 5.74206443 3.82692795 7.6875 7.3125 C7.9375 11.125 7.9375 11.125 7.6875 14.3125 C6.3675 14.3125 5.0475 14.3125 3.6875 14.3125 C3.67332031 13.62542969 3.65914062 12.93835938 3.64453125 12.23046875 C3.51278018 6.64093839 3.51278018 6.64093839 0.5625 2.1875 C-4.52351784 0.63958153 -9.20010816 1.07313228 -14.3125 2.3125 C-14.3125 1.6525 -14.3125 0.9925 -14.3125 0.3125 C-14.9725 -0.0175 -15.6325 -0.3475 -16.3125 -0.6875 C-10.73836747 -2.54554418 -5.36974432 -2.49381384 0 0 Z " fill="#2E366E" transform="translate(221.3125,53.6875)"/>
<path d="M0 0 C0.5775 0.22945312 1.155 0.45890625 1.75 0.6953125 C-0.25409123 2.74165867 -2.31591948 4.65542645 -4.5 6.5078125 C-5.10457031 7.02214844 -5.70914062 7.53648438 -6.33203125 8.06640625 C-7.28142578 8.87271484 -7.28142578 8.87271484 -8.25 9.6953125 C-9.56303976 10.81968247 -10.8755637 11.94465519 -12.1875 13.0703125 C-13.20833333 13.9453125 -14.22916667 14.8203125 -15.25 15.6953125 C-13.83204182 9.15618495 -8.97738593 5.36658295 -4.25 0.953125 C-2.25 -0.3046875 -2.25 -0.3046875 0 0 Z M-23.25 22.6953125 C-22.92 22.6953125 -22.59 22.6953125 -22.25 22.6953125 C-22.25 24.6753125 -22.25 26.6553125 -22.25 28.6953125 C-22.58 28.6953125 -22.91 28.6953125 -23.25 28.6953125 C-23.25 26.7153125 -23.25 24.7353125 -23.25 22.6953125 Z " fill="#57283E" transform="translate(278.25,38.3046875)"/>
<path d="M0 0 C2.31 0.33 4.62 0.66 7 1 C6.01 1.495 6.01 1.495 5 2 C4.566875 3.3921875 4.566875 3.3921875 4.125 4.8125 C2.92000945 8.2266399 1.8215294 9.77697684 -1 12 C-1.99 12 -2.98 12 -4 12 C-4.56815845 7.1706532 -2.78716476 4.83235154 0 1 C0 0.67 0 0.34 0 0 Z " fill="#6B2027" transform="translate(246,25)"/>
<path d="M0 0 C1.2684375 0.495 1.2684375 0.495 2.5625 1 C1.48046875 2.48828125 1.48046875 2.48828125 -0.4375 4 C-3.57421875 4.29296875 -3.57421875 4.29296875 -7.125 4.1875 C-8.89423828 4.14689453 -8.89423828 4.14689453 -10.69921875 4.10546875 C-12.05466797 4.05326172 -12.05466797 4.05326172 -13.4375 4 C-13.0625 2.0625 -13.0625 2.0625 -12.4375 0 C-8.41501725 -2.01124138 -4.18016888 -1.21604913 0 0 Z " fill="#1C3B82" transform="translate(173.4375,116)"/>
<path d="M0 0 C-0.25876292 3.79518955 -0.5538137 5.54141964 -3.25 8.3125 C-5.95304268 9.97118528 -7.87542858 10.64290612 -11 11 C-9.07216318 5.37714261 -6.48160071 0 0 0 Z " fill="#6D1F24" transform="translate(172,69)"/>
<path d="M0 0 C0.99 0.66 1.98 1.32 3 2 C3 2.99 3 3.98 3 5 C0.89646505 5.0810206 -1.20795952 5.13919907 -3.3125 5.1875 C-4.48425781 5.22230469 -5.65601563 5.25710937 -6.86328125 5.29296875 C-10 5 -10 5 -11.91796875 3.48828125 C-12.27503906 2.99714844 -12.63210937 2.50601563 -13 2 C-8.5153968 0.56492698 -4.76549564 -0.43322688 0 0 Z " fill="#1A3C84" transform="translate(231,115)"/>
<path d="M0 0 C0.38218767 1.65614657 0.71395102 3.32457024 1 5 C0 6 0 6 -2.6875 6.1875 C-6.12625243 5.99285364 -8.79502847 5.22094153 -12 4 C-12 3.34 -12 2.68 -12 2 C-8.09971775 -0.60018816 -4.52565431 -0.15085514 0 0 Z " fill="#1B3C84" transform="translate(245,110)"/>
<path d="M0 0 C3.48221175 0.17411059 5.65214817 0.68551124 8.75 2.1875 C7.05820672 4.22969706 6.11272334 5.10543306 3.48828125 5.69921875 C2.68777344 5.75722656 1.88726562 5.81523438 1.0625 5.875 C0.25425781 5.94074219 -0.55398437 6.00648437 -1.38671875 6.07421875 C-2.30904297 6.13029297 -2.30904297 6.13029297 -3.25 6.1875 C-3.63218767 4.53135343 -3.96395102 2.86292976 -4.25 1.1875 C-3.25 0.1875 -3.25 0.1875 0 0 Z " fill="#1B3C84" transform="translate(152.25,109.8125)"/>
<path d="M0 0 C-1.68673918 4.49797113 -3.81673892 8.72886302 -6 13 C-5.34 13.33 -4.68 13.66 -4 14 C-5.32 13.67 -6.64 13.34 -8 13 C-8.875 10.4375 -8.875 10.4375 -9 7 C-6.70999918 3.15003218 -4.65410844 0 0 0 Z " fill="#383565" transform="translate(208,25)"/>
<path d="M0 0 C2.5 0.125 2.5 0.125 3.5 1.125 C3.75 3.5625 3.75 3.5625 3.5 6.125 C0.5 8.125 0.5 8.125 -1.6875 7.75 C-2.285625 7.54375 -2.88375 7.3375 -3.5 7.125 C-3.54254356 5.12545254 -3.54080783 3.12458364 -3.5 1.125 C-2.5 0.125 -2.5 0.125 0 0 Z " fill="#1C3C82" transform="translate(197.5,110.875)"/>
<path d="M0 0 C1.1446875 0.3403125 1.1446875 0.3403125 2.3125 0.6875 C1.9825 2.6675 1.6525 4.6475 1.3125 6.6875 C0.6525 6.0275 -0.0075 5.3675 -0.6875 4.6875 C-0.3575 4.0275 -0.0275 3.3675 0.3125 2.6875 C-0.3475 2.6875 -1.0075 2.6875 -1.6875 2.6875 C-1.6875 4.6675 -1.6875 6.6475 -1.6875 8.6875 C-0.6975 9.0175 0.2925 9.3475 1.3125 9.6875 C-1.6575 9.1925 -1.6575 9.1925 -4.6875 8.6875 C-6.01591008 3.25309513 -6.01591008 3.25309513 -4.5625 0.75 C-2.6875 -0.3125 -2.6875 -0.3125 0 0 Z " fill="#502F4A" transform="translate(356.6875,79.3125)"/>
<path d="M0 0 C0.60585937 0.0721875 1.21171875 0.144375 1.8359375 0.21875 C13.4745118 1.53550318 13.4745118 1.53550318 25 0 C25 0.66 25 1.32 25 2 C17.34204271 4.65684233 9.9422446 3.9612252 2 3 C1.34 2.67 0.68 2.34 0 2 C0 1.34 0 0.68 0 0 Z " fill="#253A79" transform="translate(160,6)"/>
<path d="M0 0 C1.11375 1.175625 1.11375 1.175625 2.25 2.375 C5.35358187 5.33750996 7.27022473 6.86895642 11.578125 7.1953125 C12.45984375 7.17210937 13.3415625 7.14890625 14.25 7.125 C15.58804688 7.09792969 15.58804688 7.09792969 16.953125 7.0703125 C17.62859375 7.04710937 18.3040625 7.02390625 19 7 C16.26152276 9.2650862 15.21788204 9.97623105 11.5625 10.375 C6.82223629 9.87602487 4.36483827 8.50602843 1.1875 5 C0 3 0 3 0 0 Z " fill="#2A3773" transform="translate(137,29)"/>
<path d="M0 0 C0.99 0 1.98 0 3 0 C1.43358249 4.30764815 -0.68336156 8.06171464 -3 12 C-3.99 11.67 -4.98 11.34 -6 11 C-6.99 11 -7.98 11 -9 11 C-8.43410156 10.37351562 -7.86820313 9.74703125 -7.28515625 9.1015625 C-6.18494141 7.87566406 -6.18494141 7.87566406 -5.0625 6.625 C-4.33160156 5.81289063 -3.60070312 5.00078125 -2.84765625 4.1640625 C-0.97010529 2.14075833 -0.97010529 2.14075833 0 0 Z " fill="#2C3771" transform="translate(213,26)"/>
<path d="M0 0 C0.99 0.33 1.98 0.66 3 1 C1.35 3.64 -0.3 6.28 -2 9 C-0.94729537 10.15811388 -0.94729537 10.15811388 1 11 C0.34 11.66 -0.32 12.32 -1 13 C-3.125 12.625 -3.125 12.625 -5 12 C-5.39213671 7.55578397 -4.25321274 4.81312925 -2 1 C-1.34 0.67 -0.68 0.34 0 0 Z " fill="#273876" transform="translate(253,26)"/>
<path d="M0 0 C0.57234375 0.22171875 1.1446875 0.4434375 1.734375 0.671875 C0.97125 1.084375 0.208125 1.496875 -0.578125 1.921875 C-4.22658156 4.29761415 -5.89223187 6.17830246 -6.953125 10.421875 C-7.05625 11.164375 -7.159375 11.906875 -7.265625 12.671875 C-6.605625 13.001875 -5.945625 13.331875 -5.265625 13.671875 C-6.255625 13.671875 -7.245625 13.671875 -8.265625 13.671875 C-9.52227478 10.76587239 -10.265625 8.87582916 -10.265625 5.671875 C-8.65625 4.03125 -8.65625 4.03125 -6.515625 2.421875 C-5.81953125 1.88046875 -5.1234375 1.3390625 -4.40625 0.78125 C-2.265625 -0.328125 -2.265625 -0.328125 0 0 Z " fill="#2B3771" transform="translate(192.265625,25.328125)"/>
<path d="M0 0 C2.02678404 2.02678404 2.65096346 3.34897972 3.75 5.9375 C5.69124311 9.98910968 7.70955515 11.43983824 12 13 C10.2265625 13.640625 10.2265625 13.640625 8 14 C6.1484375 13.109375 6.1484375 13.109375 4.375 11.75 C3.78460938 11.31171875 3.19421875 10.8734375 2.5859375 10.421875 C1 9 1 9 -1 6 C-0.625 2.8125 -0.625 2.8125 0 0 Z " fill="#1F3B80" transform="translate(195,74)"/>
<path d="M0 0 C0.66 0.33 1.32 0.66 2 1 C1.2884375 1.804375 1.2884375 1.804375 0.5625 2.625 C-1.28186076 5.42842836 -1.62456847 7.69620258 -2 11 C-1.01 11.66 -0.02 12.32 1 13 C-3.875 12.125 -3.875 12.125 -5 11 C-5.375 7.6875 -5.375 7.6875 -5 4 C-2.5 1.5625 -2.5 1.5625 0 0 Z " fill="#243977" transform="translate(175,26)"/>
<path d="M0 0 C0.825 0.78375 1.65 1.5675 2.5 2.375 C6.09579467 5.41164 9.42279594 6.13190957 14 7 C12 9 12 9 9.1875 9.375 C5.23293372 8.90975691 3.71935074 7.87474221 1 5 C0.1875 2.25 0.1875 2.25 0 0 Z " fill="#23397B" transform="translate(145,19)"/>
<path d="M0 0 C9.48421053 -0.55789474 9.48421053 -0.55789474 14 3 C16 5 16 5 16.125 8.125 C16.08375 9.07375 16.0425 10.0225 16 11 C15.773125 10.4225 15.54625 9.845 15.3125 9.25 C13.19394397 5.61818966 10.74345035 3.5206949 6.671875 2.3046875 C4.45388879 1.80947674 2.24181587 1.37119391 0 1 C0 0.67 0 0.34 0 0 Z " fill="#223A7B" transform="translate(147,11)"/>
<path d="M0 0 C2.475 0.495 2.475 0.495 5 1 C5 3.64 5 6.28 5 9 C3.68 8.67 2.36 8.34 1 8 C0.67 5.36 0.34 2.72 0 0 Z " fill="#1D3C82" transform="translate(289,80)"/>
<path d="M0 0 C1.32 0 2.64 0 4 0 C1.89285714 5.99725275 1.89285714 5.99725275 -1 8 C-3.1015625 7.5703125 -3.1015625 7.5703125 -5 7 C-4.26708288 5.8225266 -3.51296199 4.65823146 -2.75 3.5 C-2.33234375 2.8503125 -1.9146875 2.200625 -1.484375 1.53125 C-0.74960938 0.77328125 -0.74960938 0.77328125 0 0 Z " fill="#243979" transform="translate(119,44)"/>
<path d="M0 0 C-1.56641751 4.30764815 -3.68336156 8.06171464 -6 12 C-6.33 12 -6.66 12 -7 12 C-6.91253716 10.56138706 -6.80434652 9.12402492 -6.6875 7.6875 C-6.62949219 6.88699219 -6.57148438 6.08648437 -6.51171875 5.26171875 C-5.60502479 1.25426989 -4.07029813 0 0 0 Z " fill="#203B81" transform="translate(226,26)"/>
<path d="M0 0 C0.99 0.33 1.98 0.66 3 1 C2.67 2.98 2.34 4.96 2 7 C0.35 7 -1.3 7 -3 7 C-3 5.02 -3 3.04 -3 1 C-2.34 1 -1.68 1 -1 1 C-1 1.99 -1 2.98 -1 4 C-0.67 2.68 -0.34 1.36 0 0 Z " fill="#622533" transform="translate(358,81)"/>
<path d="M0 0 C0.99 0 1.98 0 3 0 C2.42365861 4.75481646 0.44931479 7.97048212 -2 12 C-2.99 11.34 -3.98 10.68 -5 10 C-4.6390625 9.52949219 -4.278125 9.05898438 -3.90625 8.57421875 C-3.4421875 7.95160156 -2.978125 7.32898437 -2.5 6.6875 C-2.0359375 6.07261719 -1.571875 5.45773438 -1.09375 4.82421875 C0.25711283 2.92566995 0.25711283 2.92566995 0 0 Z " fill="#273877" transform="translate(279,36)"/>
<path d="M0 0 C0.99 0.33 1.98 0.66 3 1 C1.7508258 4.45925163 0.32472205 7.14693203 -2 10 C-2.66 8.02 -3.32 6.04 -4 4 C-2.68 2.68 -1.36 1.36 0 0 Z " fill="#32366C" transform="translate(231,28)"/>
<path d="M0 0 C0.99 0 1.98 0 3 0 C2.67 0.556875 2.34 1.11375 2 1.6875 C0.8690399 4.30284522 0.84337026 6.1806646 1 9 C0.01 9.495 0.01 9.495 -1 10 C-1.33 8.68 -1.66 7.36 -2 6 C-3.65 7.32 -5.3 8.64 -7 10 C-5.32127275 6.03209924 -2.91722926 3.13068506 0 0 Z " fill="#31366C" transform="translate(149,66)"/>
<path d="M0 0 C0.66 0 1.32 0 2 0 C3.4783226 2.95664519 3.06032783 5.74229737 3 9 C1.68 9 0.36 9 -1 9 C-0.67 6.03 -0.34 3.06 0 0 Z " fill="#193C86" transform="translate(226,59)"/>
<path d="M0 0 C3.96 0 7.92 0 12 0 C7.5078125 5.46875 7.5078125 5.46875 6 7 C5.34 7 4.68 7 4 7 C5.875 3.125 5.875 3.125 7 2 C4.69 1.67 2.38 1.34 0 1 C0 0.67 0 0.34 0 0 Z " fill="#532A44" transform="translate(168,9)"/>
<path d="M0 0 C0.66 0.33 1.32 0.66 2 1 C1.34 3.31 0.68 5.62 0 8 C-0.66 7.01 -1.32 6.02 -2 5 C-2.78375 5.66 -3.5675 6.32 -4.375 7 C-7 9 -7 9 -9 9 C-8 6 -8 6 -6.1875 5.0625 C-5.465625 4.711875 -4.74375 4.36125 -4 4 C-2.62913085 2.70529025 -1.28659163 1.37849103 0 0 Z " fill="#532C45" transform="translate(219,30)"/>
<path d="M0 0 C0.66 0.99 1.32 1.98 2 3 C-0.86698342 6.49413605 -2.84150148 8.28836874 -7.3125 8.8125 C-9.1378125 8.9053125 -9.1378125 8.9053125 -11 9 C-10.67 8.34 -10.34 7.68 -10 7 C-8.88625 6.731875 -7.7725 6.46375 -6.625 6.1875 C-2.86080071 5.34223573 -2.86080071 5.34223573 -1.0625 2.375 C-0.711875 1.59125 -0.36125 0.8075 0 0 Z " fill="#303569" transform="translate(272,80)"/>
<path d="M0 0 C1.32 0 2.64 0 4 0 C4 1.65 4 3.3 4 5 C2.02 5.66 0.04 6.32 -2 7 C-1.34 4.69 -0.68 2.38 0 0 Z " fill="#243B7C" transform="translate(285,68)"/>
<path d="M0 0 C0 3.77910478 -0.99703962 4.46106101 -3.5 7.1875 C-4.1496875 7.90292969 -4.799375 8.61835937 -5.46875 9.35546875 C-5.9740625 9.89816406 -6.479375 10.44085938 -7 11 C-7.66 10.67 -8.32 10.34 -9 10 C-6.68116787 5.49115974 -3.93548431 3.06093224 0 0 Z " fill="#542C43" transform="translate(198,33)"/>
<path d="M0 0 C-0.125 1.8125 -0.125 1.8125 -1 4 C-4.0625 5.75 -4.0625 5.75 -7 7 C-4.60526316 0 -4.60526316 0 0 0 Z " fill="#6C1F25" transform="translate(180,26)"/>
<path d="M0 0 C0.99 0 1.98 0 3 0 C2.67 1.65 2.34 3.3 2 5 C0.68 5.33 -0.64 5.66 -2 6 C-1.125 1.125 -1.125 1.125 0 0 Z " fill="#1B3B83" transform="translate(249,74)"/>
<path d="M0 0 C0.66 0.33 1.32 0.66 2 1 C0.68 3.64 -0.64 6.28 -2 9 C-1.34 9.33 -0.68 9.66 0 10 C-1.32 9.67 -2.64 9.34 -4 9 C-3.67 7.02 -3.34 5.04 -3 3 C-2.01 2.67 -1.02 2.34 0 2 C0 1.34 0 0.68 0 0 Z " fill="#253976" transform="translate(204,29)"/>
<path d="M0 0 C0.33 0.99 0.66 1.98 1 3 C-0.9375 5.6875 -0.9375 5.6875 -3 8 C-3.99 7.67 -4.98 7.34 -6 7 C-4.02 4.69 -2.04 2.38 0 0 Z " fill="#4A2E50" transform="translate(336,73)"/>
<path d="M0 0 C0.9796875 0.00515625 1.959375 0.0103125 2.96875 0.015625 C3.9484375 0.01046875 4.928125 0.0053125 5.9375 0 C8.46875 0.265625 8.46875 0.265625 10.46875 2.265625 C9.47875 2.595625 8.48875 2.925625 7.46875 3.265625 C7.13875 2.935625 6.80875 2.605625 6.46875 2.265625 C4.61587498 2.19335998 2.76041122 2.1818128 0.90625 2.203125 C-0.10566406 2.21214844 -1.11757812 2.22117188 -2.16015625 2.23046875 C-2.94261719 2.24207031 -3.72507812 2.25367188 -4.53125 2.265625 C-2.53125 0.265625 -2.53125 0.265625 0 0 Z " fill="#32366A" transform="translate(90.53125,36.734375)"/>
<path d="M0 0 C0.99 0 1.98 0 3 0 C2.67 1.65 2.34 3.3 2 5 C3.32 5.33 4.64 5.66 6 6 C3.625 6.125 3.625 6.125 1 6 C0.34 5.34 -0.32 4.68 -1 4 C-0.625 1.875 -0.625 1.875 0 0 Z " fill="#243878" transform="translate(138,83)"/>
<path d="M0 0 C0.7425 0.598125 1.485 1.19625 2.25 1.8125 C4.47417764 3.58173222 6.71662235 5.30860915 9 7 C4.2482602 6.56802365 2.07999946 5.67230705 -1 2 C-0.67 1.34 -0.34 0.68 0 0 Z " fill="#283875" transform="translate(198,81)"/>
<path d="M0 0 C2.64752004 2.57784846 4.94432065 4.91648098 7 8 C4.24542282 7.62005832 3.17979426 7.1926367 1.25 5.125 C0 3 0 3 0 0 Z " fill="#22397C" transform="translate(137,29)"/>
<path d="M0 0 C0.33 0.99 0.66 1.98 1 3 C2.98 2.01 4.96 1.02 7 0 C6.3125 1.9375 6.3125 1.9375 5 4 C2.375 4.75 2.375 4.75 0 5 C-0.33 4.34 -0.66 3.68 -1 3 C-0.67 2.01 -0.34 1.02 0 0 Z " fill="#483052" transform="translate(241,34)"/>
</svg>
