<?xml version="1.0" standalone="no"?>
<!DOCTYPE svg PUBLIC "-//W3C//DTD SVG 20010904//EN"
 "http://www.w3.org/TR/2001/REC-SVG-20010904/DTD/svg10.dtd">
<svg version="1.0" xmlns="http://www.w3.org/2000/svg"
 width="212.000000pt" height="120.000000pt" viewBox="0 0 212.000000 120.000000"
 preserveAspectRatio="xMidYMid meet">

<g transform="translate(0.000000,120.000000) scale(0.100000,-0.100000)"
fill="#000000" stroke="none">
<path d="M0 600 l0 -600 1060 0 1060 0 0 600 0 600 -1060 0 -1060 0 0 -600z
m672 472 c69 -43 85 -136 32 -189 -27 -27 -85 -31 -104 -8 -8 9 -8 15 -2 15
18 0 54 68 47 90 -19 60 -119 79 -202 39 -46 -22 -67 -52 -78 -111 -6 -32 -3
-40 27 -72 18 -19 83 -62 145 -96 169 -92 201 -143 154 -245 -39 -86 -130
-135 -266 -142 -87 -5 -92 -4 -120 20 -29 24 -30 29 -30 105 0 97 18 129 84
151 75 24 125 -21 61 -54 -60 -31 -81 -121 -34 -151 22 -15 32 -15 80 -5 113
26 182 134 122 194 -13 13 -72 49 -131 81 -60 32 -124 71 -143 88 -39 35 -58
91 -48 146 22 120 113 175 279 169 73 -2 98 -7 127 -25z m288 -89 c0 -5 -7
-33 -15 -63 -22 -84 -23 -84 35 -76 65 9 75 2 53 -36 -21 -35 -35 -43 -88 -52
l-41 -7 -23 -93 c-24 -94 -23 -116 5 -116 23 0 74 29 74 43 1 98 123 213 193
180 12 -6 30 -14 40 -17 20 -6 21 -30 5 -126 -15 -85 -4 -107 34 -69 19 19 34
67 73 227 44 181 51 203 71 208 31 8 64 -12 64 -39 0 -12 -13 -66 -29 -119
-15 -54 -25 -98 -22 -98 4 0 40 30 80 67 58 53 76 64 89 57 36 -23 26 -40 -83
-131 l-50 -42 18 -68 c46 -175 142 -234 273 -168 59 30 54 29 54 7 0 -25 -40
-60 -81 -72 -89 -26 -204 7 -249 70 -32 44 -69 138 -70 175 -1 26 -3 27 -10
10 -5 -11 -9 -36 -9 -56 -2 -75 -11 -97 -44 -105 -24 -5 -34 -2 -48 15 -15 18
-18 19 -29 6 -18 -21 -66 -19 -83 4 -13 20 -13 20 -43 1 -38 -26 -99 -26 -120
-1 -16 18 -17 18 -58 0 -56 -25 -118 -25 -142 2 -18 19 -18 24 -2 117 9 53 15
98 13 100 -2 2 -12 -1 -23 -7 -34 -18 -80 -13 -92 10 -6 11 -10 25 -8 31 2 6
37 23 78 37 l73 26 17 63 c23 84 42 104 108 111 6 0 12 -2 12 -6z m795 -233
c8 -7 15 -28 15 -47 0 -47 -51 -99 -106 -108 -59 -10 -63 -12 -57 -34 8 -32
51 -38 96 -13 42 23 57 21 57 -7 0 -22 -32 -45 -87 -61 -110 -33 -189 71 -134
178 36 70 104 115 164 108 21 -2 44 -10 52 -16z m-1155 -520 c0 -5 -13 -10
-30 -10 -20 0 -30 -5 -30 -15 0 -10 10 -15 30 -15 20 0 30 -5 30 -15 0 -10
-10 -15 -30 -15 -25 0 -30 -4 -30 -25 0 -16 -6 -25 -15 -25 -12 0 -15 14 -15
65 l0 65 45 0 c25 0 45 -4 45 -10z m110 -55 c0 -51 -3 -65 -15 -65 -11 0 -15
11 -15 39 0 27 -5 41 -16 45 -15 6 -15 8 1 26 34 37 45 26 45 -45z m290 55 c0
-5 -9 -10 -20 -10 -18 0 -20 -7 -20 -55 0 -42 -3 -55 -15 -55 -11 0 -15 12
-15 51 0 42 -3 52 -20 56 -39 10 -19 23 35 23 30 0 55 -4 55 -10z m147 -2 c-2
-7 -16 -12 -30 -12 -17 1 -27 -4 -27 -12 0 -9 11 -14 30 -14 20 0 30 -5 30
-15 0 -10 -10 -15 -30 -15 -16 0 -30 -4 -30 -10 0 -5 14 -10 30 -10 20 0 30
-5 30 -15 0 -11 -12 -15 -45 -15 l-45 0 0 65 0 65 46 0 c32 0 44 -4 41 -12z
m166 -50 c16 -40 21 -64 14 -67 -5 -2 -16 4 -22 13 -15 20 -54 21 -61 1 -4 -8
-13 -15 -21 -15 -10 0 -12 6 -7 23 18 58 45 107 58 107 8 0 25 -27 39 -62z
m137 25 l14 -38 15 37 c10 23 23 38 34 38 14 0 17 -10 17 -65 0 -51 -3 -65
-15 -65 -10 0 -15 10 -15 33 l-1 32 -14 -32 c-17 -40 -28 -41 -42 -5 l-11 27
-1 -27 c-1 -18 -7 -28 -16 -28 -12 0 -15 14 -15 65 0 56 3 65 18 65 12 0 23
-13 32 -37z"/>
<path d="M1104 697 c-34 -29 -79 -120 -70 -143 10 -27 55 -16 76 18 20 33 35
102 28 133 -3 16 -7 15 -34 -8z"/>
<path d="M1680 717 c-25 -20 -60 -69 -60 -83 0 -41 84 20 96 69 7 30 -9 36
-36 14z"/>
<path d="M1267 185 c-8 -20 -4 -29 11 -24 5 2 6 13 2 23 -6 19 -7 19 -13 1z"/>
</g>
</svg>
