<?xml version="1.0" standalone="no"?>
<!DOCTYPE svg PUBLIC "-//W3C//DTD SVG 20010904//EN"
 "http://www.w3.org/TR/2001/REC-SVG-20010904/DTD/svg10.dtd">
<svg version="1.0" xmlns="http://www.w3.org/2000/svg"
 width="320.000000pt" height="120.000000pt" viewBox="0 0 320.000000 120.000000"
 preserveAspectRatio="xMidYMid meet">

<g transform="translate(0.000000,120.000000) scale(0.100000,-0.100000)"
fill="#000000" stroke="none">
<path d="M0 600 l0 -600 1600 0 1600 0 0 600 0 600 -772 -1 c-425 -1 -759 -4
-742 -9 67 -15 66 -13 34 -83 -16 -36 -34 -87 -40 -113 -18 -78 -16 -74 -48
-63 l-28 10 7 70 c5 38 15 94 23 124 9 29 16 56 16 59 0 3 -25 6 -56 6 -48 0
-55 -2 -50 -17 17 -60 35 -145 39 -190 4 -50 3 -53 -24 -62 -27 -9 -29 -8 -35
17 -12 55 -37 128 -61 175 -26 52 -27 51 41 67 17 5 -314 8 -736 9 l-768 1 0
-600z m1411 475 c25 -25 58 -71 73 -104 l28 -59 -20 -20 -21 -21 -20 33 c-22
34 -114 126 -128 126 -4 0 -15 5 -23 10 -12 8 -9 15 20 45 18 19 37 35 40 35
4 0 27 -20 51 -45z m459 10 c18 -19 32 -36 29 -38 -2 -2 -20 -13 -40 -25 -44
-26 -114 -101 -124 -131 -8 -27 -16 -26 -37 3 -16 22 -15 26 7 74 22 47 108
152 124 152 4 0 22 -16 41 -35z m-534 -139 c28 -13 67 -39 86 -59 29 -28 34
-40 30 -66 -4 -29 -6 -30 -21 -17 -26 24 -123 65 -168 72 -46 7 -49 13 -32 63
13 38 35 40 105 7z m623 -7 c17 -50 14 -56 -32 -63 -45 -7 -142 -48 -168 -72
-15 -13 -17 -12 -21 16 -4 24 2 37 30 65 39 39 125 85 158 85 16 0 25 -9 33
-31z"/>
</g>
</svg>
