<?xml version="1.0" standalone="no"?>
<!DOCTYPE svg PUBLIC "-//W3C//DTD SVG 20010904//EN"
 "http://www.w3.org/TR/2001/REC-SVG-20010904/DTD/svg10.dtd">
<svg version="1.0" xmlns="http://www.w3.org/2000/svg"
 width="172.000000pt" height="120.000000pt" viewBox="0 0 172.000000 120.000000"
 preserveAspectRatio="xMidYMid meet">

<g transform="translate(0.000000,120.000000) scale(0.100000,-0.100000)"
fill="#000000" stroke="none">
<path d="M0 865 l0 -335 80 0 80 0 0 -82 0 -83 83 83 82 82 80 0 80 0 -95 -95
-95 -95 115 -115 c63 -63 118 -115 122 -115 5 0 8 94 8 210 l0 210 80 0 80 0
0 -160 0 -160 135 0 135 0 0 -55 0 -55 -322 0 -323 0 -82 82 -83 83 0 -83 0
-82 -80 0 -80 0 0 -50 0 -50 860 0 860 0 0 50 0 50 -80 0 -80 0 0 152 c0 83
-3 148 -7 144 -5 -4 -31 -71 -59 -149 l-50 -142 -76 -3 -75 -3 -48 133 c-26
73 -51 140 -56 148 -5 9 -9 -46 -9 -132 l0 -148 -80 0 -80 0 0 215 0 215 133
0 133 0 38 -115 c20 -63 41 -113 46 -110 4 3 11 16 14 30 4 14 20 63 37 110
l31 85 134 0 134 0 0 335 0 335 -860 0 -860 0 0 -335z m880 205 c0 -27 3 -30
30 -30 25 0 30 -4 30 -25 0 -21 -5 -25 -30 -25 -25 0 -30 -4 -30 -25 0 -20 -5
-25 -25 -25 -20 0 -25 5 -25 25 0 20 -5 25 -25 25 -20 0 -25 5 -25 25 0 20 5
25 25 25 21 0 25 5 25 30 0 25 4 30 25 30 21 0 25 -5 25 -30z m-301 -134 c28
-15 51 -53 51 -86 0 -11 -13 -34 -28 -51 -68 -77 -184 -5 -150 93 10 29 49 57
81 58 10 0 30 -6 46 -14z m230 -12 c39 -33 43 -89 9 -129 -38 -44 -117 -35
-143 15 -19 37 -19 70 1 98 33 47 89 54 133 16z m229 -9 c59 -69 -13 -172
-101 -142 -37 12 -57 44 -57 88 0 52 48 93 99 85 21 -3 45 -16 59 -31z m191
20 c53 -27 61 -103 16 -145 -36 -34 -92 -30 -127 9 -42 47 -31 107 23 137 31
17 54 17 88 -1z m-49 -250 l0 -55 -320 0 -320 0 0 55 0 55 320 0 320 0 0 -55z"/>
</g>
</svg>
