<?xml version="1.0" standalone="no"?>
<!DOCTYPE svg PUBLIC "-//W3C//DTD SVG 20010904//EN"
 "http://www.w3.org/TR/2001/REC-SVG-20010904/DTD/svg10.dtd">
<svg version="1.0" xmlns="http://www.w3.org/2000/svg"
 width="400.000000pt" height="120.000000pt" viewBox="0 0 400.000000 120.000000"
 preserveAspectRatio="xMidYMid meet">

<g transform="translate(0.000000,120.000000) scale(0.100000,-0.100000)"
fill="#000000" stroke="none">
<path d="M1 908 c1 -194 4 -271 9 -228 31 259 239 471 500 509 37 6 -39 9
-227 10 l-283 1 1 -292z"/>
<path d="M696 1190 c213 -28 409 -199 477 -415 30 -98 30 -252 0 -350 -70
-221 -262 -385 -488 -415 -33 -4 699 -8 1627 -9 l1688 -1 0 600 0 600 -1683
-1 c-925 -1 -1655 -5 -1621 -9z m2461 -278 c6 -4 16 -19 22 -33 21 -57 -42
-109 -93 -75 -49 32 -25 116 33 116 14 0 31 -4 38 -8z m292 -18 c29 -6 31 -9
31 -50 l0 -44 -38 6 c-43 7 -72 -12 -72 -47 0 -17 8 -19 85 -19 47 0 85 -4 85
-9 0 -17 102 -272 107 -267 2 2 26 64 51 138 l47 133 53 3 c28 2 52 -1 52 -5
0 -17 -171 -448 -190 -478 -23 -38 -57 -55 -109 -55 -35 0 -101 17 -101 26 0
2 8 19 17 38 16 34 19 35 55 30 41 -7 68 7 68 35 -1 9 -29 84 -64 166 l-64
150 -46 3 -46 3 0 -165 0 -166 -50 0 -50 0 0 165 0 165 -25 0 c-23 0 -25 4
-25 45 0 41 2 45 25 45 21 0 25 5 25 30 0 95 73 145 179 124z m-1725 -44 c68
-33 73 -43 42 -85 -15 -19 -29 -35 -30 -35 -2 0 -24 11 -47 25 -77 44 -179 27
-179 -30 0 -34 39 -60 117 -79 135 -34 192 -92 179 -183 -13 -94 -81 -142
-198 -143 -74 0 -154 25 -201 63 l-27 23 32 37 33 37 43 -29 c64 -44 159 -53
199 -19 19 15 16 62 -4 81 -10 8 -50 24 -90 35 -131 37 -169 63 -183 129 -19
82 24 158 106 189 51 19 148 11 208 -16z m1186 -55 l0 -55 55 0 55 0 0 -45 0
-45 -55 0 -55 0 0 -103 c0 -127 8 -143 68 -133 l42 6 0 -40 c0 -47 -18 -60
-85 -60 -60 0 -100 22 -114 61 -6 18 -11 85 -11 150 l0 119 -25 0 c-23 0 -25
4 -25 45 0 41 2 45 25 45 24 0 25 3 25 55 l0 55 50 0 50 0 0 -55z m-778 -55
c87 -25 141 -105 140 -211 0 -80 -25 -135 -78 -176 -30 -22 -49 -28 -103 -31
-58 -3 -71 -1 -103 22 l-38 25 0 -84 0 -85 -50 0 -50 0 0 270 0 270 50 0 c47
0 50 -1 50 -27 0 -25 1 -25 19 -9 20 19 85 45 111 46 8 0 32 -5 52 -10z m464
-5 c186 -55 206 -307 31 -397 -93 -47 -221 -15 -281 70 -24 34 -31 56 -34 107
-7 108 47 188 150 220 56 18 75 18 134 0z m574 -205 l0 -210 -50 0 -50 0 0
210 0 210 50 0 50 0 0 -210z m794 202 c3 -5 -8 -6 -25 -4 -16 2 -29 6 -29 8 0
8 49 4 54 -4z m-76 -22 c-7 -10 -14 -17 -17 -15 -4 4 18 35 25 35 2 0 -1 -9
-8 -20z m69 -40 c1 -31 0 -33 -11 -17 -7 9 -16 17 -19 17 -3 0 -8 -8 -10 -17
-3 -10 -5 -1 -6 20 -1 34 1 38 22 35 18 -2 22 -10 24 -38z m-67 -35 c14 -19
14 -19 -2 -6 -10 7 -18 18 -18 24 0 6 1 8 3 6 1 -2 9 -13 17 -24z m85 -5 c-10
-11 -29 -19 -44 -19 l-26 2 27 4 c14 2 32 11 38 19 7 8 15 14 18 14 3 0 -3 -9
-13 -20z"/>
<path d="M2024 651 c-11 -5 -33 -24 -48 -42 -25 -29 -28 -39 -24 -88 4 -45 10
-59 37 -83 44 -39 99 -39 143 1 30 27 33 34 33 90 0 54 -3 64 -30 91 -32 32
-78 45 -111 31z"/>
<path d="M2490 647 c-41 -14 -80 -68 -80 -109 0 -42 24 -92 53 -111 15 -9 46
-17 70 -17 54 0 90 29 108 88 10 35 9 45 -7 78 -32 64 -86 91 -144 71z"/>
<path d="M3920 690 c0 -5 7 -10 15 -10 8 0 15 5 15 10 0 6 -7 10 -15 10 -8 0
-15 -4 -15 -10z"/>
<path d="M295 863 c-38 -8 -78 -22 -87 -30 -26 -23 -23 -69 6 -88 21 -14 29
-14 87 2 48 13 102 17 214 17 165 -1 252 -15 357 -59 35 -15 75 -32 91 -38 44
-18 86 18 74 64 -11 45 -155 106 -316 134 -108 19 -333 18 -426 -2z"/>
<path d="M410 674 c-146 -22 -180 -37 -180 -79 0 -43 22 -49 117 -30 66 13
115 16 193 12 123 -6 197 -24 298 -72 79 -37 104 -36 117 6 9 28 -16 54 -89
88 -131 62 -328 94 -456 75z"/>
<path d="M1 293 l-1 -293 293 1 c193 1 270 4 227 9 -124 15 -266 86 -351 177
-83 86 -145 217 -159 333 -5 43 -8 -34 -9 -227z"/>
<path d="M332 466 c-78 -16 -104 -46 -67 -76 13 -11 29 -11 79 -2 87 16 248
15 324 -3 34 -8 85 -26 113 -41 63 -31 93 -29 97 8 3 24 -3 30 -58 58 -131 66
-323 88 -488 56z"/>
</g>
</svg>
