<?xml version="1.0" standalone="no"?>
<!DOCTYPE svg PUBLIC "-//W3C//DTD SVG 20010904//EN"
 "http://www.w3.org/TR/2001/REC-SVG-20010904/DTD/svg10.dtd">
<svg version="1.0" xmlns="http://www.w3.org/2000/svg"
 width="382.000000pt" height="120.000000pt" viewBox="0 0 382.000000 120.000000"
 preserveAspectRatio="xMidYMid meet">

<g transform="translate(0.000000,120.000000) scale(0.100000,-0.100000)"
fill="#000000" stroke="none">
<path d="M0 875 c0 -179 2 -325 5 -325 2 0 9 18 15 39 12 45 73 110 128 137
29 15 66 19 178 22 94 3 149 0 163 -8 17 -8 71 -106 71 -126 0 -2 -81 -4 -179
-4 l-179 0 -31 -31 c-25 -25 -31 -39 -31 -73 0 -52 30 -96 66 -96 31 0 30 10
-1 40 -31 29 -33 72 -5 100 19 19 33 20 205 20 l185 0 0 185 0 185 60 0 c56 0
61 -2 70 -26 6 -15 10 -150 10 -322 -1 -258 -3 -299 -17 -314 -15 -16 -39 -18
-267 -18 -243 0 -253 1 -302 24 -57 27 -107 81 -128 141 -13 37 -14 22 -15
-192 l-1 -233 1910 0 1910 0 0 600 0 600 -1910 0 -1910 0 0 -325z m1648 53 c9
-9 12 -98 12 -340 l0 -328 -65 0 -65 0 0 340 0 340 53 0 c29 0 58 -5 65 -12z
m180 0 c9 -9 12 -98 12 -340 l0 -328 -65 0 -65 0 0 340 0 340 53 0 c29 0 58
-5 65 -12z m-637 -189 c84 -18 113 -57 205 -275 43 -103 81 -191 82 -195 2 -5
-131 -9 -295 -9 -328 0 -343 2 -387 63 -29 40 -29 144 0 184 39 53 75 63 227
63 l138 0 29 -66 c17 -36 30 -72 30 -80 0 -14 46 -31 56 -21 10 10 -68 178
-90 192 -16 12 -57 15 -186 15 -91 0 -170 4 -176 8 -9 6 -64 116 -64 128 0 9
384 3 431 -7z m1167 -17 c55 -29 69 -52 162 -272 l78 -185 -295 -3 c-266 -2
-299 -1 -331 15 -51 26 -75 63 -79 125 -5 65 17 112 66 145 31 21 45 23 171
23 156 0 151 3 191 -92 15 -35 31 -59 44 -62 10 -3 21 -3 24 -1 8 9 -54 150
-76 173 -21 21 -29 22 -191 22 -191 0 -185 -2 -221 83 -12 27 -21 51 -21 54 0
2 98 3 218 1 203 -3 220 -4 260 -26z m679 20 c10 -6 63 -113 63 -127 0 -3 -67
-5 -148 -5 -102 0 -152 -4 -160 -12 -8 -8 -12 -62 -12 -175 l0 -163 -65 0 -65
0 0 200 0 199 31 36 c17 19 45 39 63 44 38 11 276 14 293 3z m528 -14 c51 -28
84 -71 121 -159 75 -175 124 -294 124 -301 0 -5 -133 -8 -296 -8 -282 0 -298
1 -334 21 -51 29 -70 65 -70 134 0 65 17 101 64 133 30 20 44 22 174 22 l142
0 21 -32 c11 -18 25 -52 32 -76 8 -31 18 -44 35 -49 12 -3 25 -3 28 0 9 9 -64
168 -83 183 -13 10 -61 13 -184 14 -117 0 -170 4 -181 13 -13 10 -58 105 -58
122 0 4 98 5 218 3 179 -3 222 -6 247 -20z"/>
</g>
</svg>
