<svg width="22" height="22" viewBox="0 0 22 22" fill="none" xmlns="http://www.w3.org/2000/svg">
<path d="M11 14C12.1046 14 13 14.8954 13 16V20C13 21.1046 12.1046 22 11 22C9.89543 22 9 21.1046 9 20V16C9 14.8954 9.89543 14 11 14ZM6 9C7.10457 9 8 9.89543 8 11C8 12.1046 7.10457 13 6 13H2C0.89543 13 1.18549e-08 12.1046 0 11C4.82823e-08 9.89543 0.895431 9 2 9H6ZM12 9C12.5523 9 13 9.44772 13 10V12C13 12.5523 12.5523 13 12 13H10C9.44772 13 9 12.5523 9 12V10C9 9.44772 9.44772 9 10 9H12ZM20 9C21.1046 9 22 9.89543 22 11C22 12.1046 21.1046 13 20 13H16C14.8954 13 14 12.1046 14 11C14 9.89543 14.8954 9 16 9H20ZM11 0C12.1046 0 13 0.895431 13 2V6C13 7.10457 12.1046 8 11 8C9.89543 8 9 7.10457 9 6V2C9 0.895431 9.89543 0 11 0Z" fill="#8E9C79"/>
</svg>
